#N canvas 824 244 1061 809 10;
#X obj 96 383 pix_opencv_blobtrack;
#X obj 341 270 gemwin;
#X msg 356 247 0 \, destroy;
#X obj 341 178 loadbang;
#X obj 341 200 t b b;
#X obj 399 177 bng 15 250 50 0 empty empty empty 17 7 0 10 -262144
-1 -1;
#X obj 96 150 cnv 15 160 100 empty empty empty 20 12 0 14 -24198 -66577
0;
#X floatatom 107 232 4 0 0 1 width - -;
#X floatatom 117 214 4 0 0 1 height - -;
#X floatatom 127 196 4 0 0 1 bytes/pixel - -;
#X floatatom 137 179 5 0 0 1 coulorspace - -;
#X obj 96 158 pix_info . . . .;
#X obj 96 452 pix_texture;
#X obj 96 131 pix_film;
#X obj 96 101 gemhead;
#X obj 782 57 openpanel;
#X obj 782 28 bng 15 250 50 0 empty empty empty 17 7 0 10 -262144 -1
-1;
#X msg 311 26 open /home/antoine/miguel_chevalier/video_server/video/mjpeg/PeopleTrackingAbove.avi.avi
;
#X msg 154 130 0;
#X msg 198 120 auto 1;
#X msg 300 149 monitorStage \$1;
#X floatatom 301 131 5 0 2 0 - - -;
#X obj 198 93 loadbang;
#X obj 178 325 pix_yuv;
#X obj 110 325 pix_grey;
#X obj 240 324 pix_rgba;
#X msg 510 189 getModule;
#X msg 510 209 getModule fg;
#X obj 328 374 print dumpout;
#X msg 510 229 getModule bd;
#X msg 510 249 getModule bt;
#X msg 510 269 getModule btpp;
#X msg 510 289 getModule bta;
#X obj 660 175 loadbang;
#X floatatom 213 438 5 0 0 0 - - -;
#X obj 213 411 route blobnum blob;
#X obj 628 345 s blobtrack_in;
#X obj 142 360 r blobtrack_in;
#N canvas 1097 184 709 722 showblob 0;
#X obj 187 13 inlet blobinformation;
#X obj 279 316 gemlist;
#X obj 279 296 t b a;
#X obj 291 50 gemhead 70;
#X obj 129 258 list append;
#X obj 124 140 list split 2;
#X obj 124 114 list append;
#X obj 291 73 t b a;
#X obj 158 232 t b a;
#X obj 279 506 translateXYZ;
#X msg 420 349 \$2;
#X obj 279 356 alpha 1;
#X obj 279 466 translateXYZ -0.5 -0.5 0;
#X obj 279 530 scaleXYZ 0.125 0.25 0;
#X msg 459 349 \$3;
#X msg 420 499 \$4;
#X msg 459 499 \$5;
#X obj 463 328 t a a;
#X obj 279 556 circle 0.5;
#X obj 279 426 color 1 0 0 0.2;
#X obj 279 336 separator;
#X obj 279 446 scaleXYZ 10.666 8 0;
#X msg 499 499 \$1;
#X obj 279 656 text2d;
#X obj 279 576 translateXYZ 0.2 0.2 0;
#X obj 279 596 color 1 1 0 1;
#X obj 158 198 list split 6;
#X msg 124 167 \$2;
#X obj 366 602 loadbang;
#X msg 366 621 12;
#X msg 521 377 \$6;
#X obj 521 399 > 0;
#X obj 521 420 sel 1 0;
#X msg 520 441 1 0 0 0.2;
#X msg 540 461 0 1 0 0.2;
#X msg 445 620 justify center center;
#X msg 444 642 justify left base;
#X connect 0 0 6 1;
#X connect 1 0 20 0;
#X connect 2 0 1 0;
#X connect 2 1 17 0;
#X connect 3 0 7 0;
#X connect 4 0 26 0;
#X connect 5 0 27 0;
#X connect 5 1 26 0;
#X connect 6 0 5 0;
#X connect 7 0 6 0;
#X connect 7 1 1 1;
#X connect 8 0 4 0;
#X connect 8 1 2 0;
#X connect 9 0 13 0;
#X connect 10 0 9 1;
#X connect 11 0 19 0;
#X connect 12 0 9 0;
#X connect 13 0 18 0;
#X connect 14 0 9 2;
#X connect 15 0 13 1;
#X connect 16 0 13 2;
#X connect 17 0 14 0;
#X connect 17 0 10 0;
#X connect 17 1 16 0;
#X connect 17 1 15 0;
#X connect 17 1 22 0;
#X connect 17 1 30 0;
#X connect 18 0 24 0;
#X connect 19 0 21 0;
#X connect 20 0 11 0;
#X connect 21 0 12 0;
#X connect 22 0 23 0;
#X connect 24 0 25 0;
#X connect 25 0 23 0;
#X connect 26 0 8 0;
#X connect 26 1 4 1;
#X connect 27 0 26 1;
#X connect 28 0 29 0;
#X connect 29 0 23 1;
#X connect 30 0 31 0;
#X connect 31 0 32 0;
#X connect 32 0 33 0;
#X connect 32 1 34 0;
#X connect 33 0 19 1;
#X connect 34 0 19 1;
#X connect 35 0 23 0;
#X connect 36 0 23 0;
#X restore 265 555 pd showblob;
#X msg 341 224 dimen 800 600 \, create \, 1;
#X obj 96 483 rectangle 5.333 4;
#X msg 691 292 setModule bd BD_CC;
#X msg 694 258 setModule fg FG_0S;
#X msg 668 -16 symbol /home/antoine/miguel_chevalier/video_server/video/mjpeg/
;
#X msg 704 108 open \$1;
#X msg 499 504 fgTrainFrames \$1;
#X floatatom 504 477 5 0 0 0 - - -;
#X msg 814 258 setModule fg FG_1;
#X msg 661 195 setModule fg FG_1 \, setModule bd BD_Simple \, setModule
bt CC \, setModule btpp Kalman \, setModule bta none;
#X obj 43 323 pix_grey;
#X obj 96 272 pix_resize 320 240;
#X connect 0 0 12 0;
#X connect 0 1 35 0;
#X connect 2 0 1 0;
#X connect 3 0 4 0;
#X connect 4 0 39 0;
#X connect 5 0 4 0;
#X connect 11 0 50 0;
#X connect 11 1 7 0;
#X connect 11 2 8 0;
#X connect 11 3 9 0;
#X connect 11 4 10 0;
#X connect 12 0 40 0;
#X connect 13 0 11 0;
#X connect 13 2 18 0;
#X connect 14 0 13 0;
#X connect 15 0 44 0;
#X connect 16 0 15 0;
#X connect 17 0 13 0;
#X connect 18 0 13 1;
#X connect 19 0 13 0;
#X connect 20 0 0 0;
#X connect 21 0 20 0;
#X connect 22 0 19 0;
#X connect 26 0 36 0;
#X connect 27 0 36 0;
#X connect 29 0 36 0;
#X connect 30 0 36 0;
#X connect 31 0 36 0;
#X connect 32 0 36 0;
#X connect 33 0 48 0;
#X connect 35 0 34 0;
#X connect 35 1 38 0;
#X connect 37 0 0 0;
#X connect 39 0 1 0;
#X connect 41 0 36 0;
#X connect 42 0 36 0;
#X connect 43 0 15 0;
#X connect 44 0 13 0;
#X connect 45 0 0 0;
#X connect 46 0 45 0;
#X connect 47 0 36 0;
#X connect 48 0 36 0;
#X connect 49 0 0 0;
#X connect 50 0 49 0;
