#N canvas 827 85 997 933 10;
#X obj 12 84 gemwin;
#X msg 12 38 create \, 1;
#X msg 27 61 0 \, destroy;
#X obj 182 243 pix_grey;
#X obj 12 -8 loadbang;
#X obj 12 14 t b b;
#X obj 70 -9 bng 15 250 50 0 empty empty empty 17 7 0 10 -262144 -1
-1;
#X floatatom 193 219 4 0 0 1 width - -;
#X floatatom 203 201 4 0 0 1 height - -;
#X floatatom 213 183 4 0 0 1 bytes/pixel - -;
#X floatatom 223 166 5 0 0 1 coulorspace - -;
#X obj 182 145 pix_info . . . .;
#X msg 257 2 dimen 640 480;
#X obj 50 648 pix_texture;
#X obj 255 382 pix_opencv_edge;
#X obj 182 28 pix_image images/Pictures/herbier2.png;
#X obj 182 72 pix_resize 640 480;
#X msg 318 62 dimen 64 48;
#X obj 50 561 loadbang;
#X msg 50 582 quality 0;
#X msg 318 82 dimen 160 120;
#X msg 408 62 dimen 640 480;
#X msg 338 244 dim \$1;
#X floatatom 336 224 5 0 0 0 - - -;
#X obj 630 253 tgl 15 0 empty empty empty 17 7 0 10 -262144 -1 -1 1
1;
#X msg 588 297 shape 2;
#X msg 578 277 shape 1;
#X msg 598 316 shape 3;
#X msg 572 253 mode \$1;
#X text 635 278 use rectangle structuring element;
#X text 653 313 use cross-shaped structuring element;
#X text 647 295 use elliptic structuring element;
#X text 653 253 switch open/close and erode/dilate modes;
#X text 657 337 number of iterations -10/+10 (be carefull);
#X obj 188 322 pix_opencv_morphology;
#X obj 67 187 spigot;
#X obj 100 163 == 0;
#X obj 59 606 r mon;
#X obj 67 207 s mon;
#X obj 100 142 r mon-step;
#X obj 59 304 spigot;
#X obj 59 324 s mon;
#X obj 92 259 r mon-step;
#X obj 92 280 == 1;
#X obj 187 528 spigot;
#X obj 187 548 s mon;
#X obj 220 483 r mon-step;
#X obj 220 504 == 3;
#X obj 71 403 spigot;
#X obj 71 423 s mon;
#X obj 104 358 r mon-step;
#X obj 104 379 == 2;
#X obj 249 626 vradio 15 1 0 8 mon-step empty empty 0 -8 0 10 -262144
-1 -1 0;
#X text 267 625 origin;
#X text 267 640 binary;
#X text 267 657 morphology;
#X obj 59 628 pix_separator;
#X obj 188 301 t a a;
#X obj 187 348 t a a;
#X obj 182 271 pix_opencv_threshold;
#X text 267 671 edge;
#X obj 81 463 spigot;
#X obj 81 483 s mon;
#X obj 114 418 r mon-step;
#X obj 114 439 == 3;
#X obj 388 228 nbx 5 14 -1e+37 1e+37 0 1 empty empty empty 0 -8 0 10
-262144 -1 -1 84 256;
#X msg 406 80 dimen 320 240;
#X obj 598 337 nbx 5 14 -1e+37 1e+37 0 1 empty empty empty 0 -8 0 10
-262144 -1 -1 -5 256;
#X obj 352 384 nbx 5 14 -1e+37 1e+37 0 1 empty empty empty 0 -8 0 10
-262144 -1 -1 0 256;
#X obj 155 -30 gemhead 2;
#X obj 50 668 square 4;
#X obj 187 415 t a a b;
#X obj 182 99 t a a;
#X obj 635 207 loadbang;
#X msg 637 229 1;
#X msg 262 434 epsilon \$1;
#X obj 263 414 nbx 5 14 -1e+37 1e+37 0 1 empty empty empty 0 -8 0 10
-262144 -1 -1 6 256;
#X obj 158 596 pix_opencv_contours_convexhull2;
#X obj 187 462 pix_opencv_contours_convexhull2;
#N canvas 794 271 919 782 drawcontours 0;
#X obj 249 179 list split 2;
#X obj 422 615 GEMglEnd;
#X obj 461 551 GEMglVertex2d;
#X obj 500 248 gemlist;
#X obj 254 278 list append;
#X obj 283 252 t b a;
#X obj 283 232 list split 2;
#X obj 502 484 unpack;
#X obj 352 272 t b a;
#X obj 283 206 t b a b;
#X obj 461 382 gemlist;
#X obj 502 504 * 8;
#X obj 512 167 gemhead 1;
#X obj 422 586 gemlist;
#X obj 500 281 color 1 0 0 1;
#X obj 500 340 GEMglBegin GL_LINE_LOOP;
#X obj 502 524 - 4;
#X obj 536 504 * -8;
#X obj 536 528 + 4;
#N canvas 716 313 619 726 color 0;
#X obj 201 -38 inlet;
#X obj 302 -38 inlet;
#X obj 158 66 f;
#X msg 302 10 0;
#X obj 158 147 * 6;
#X obj 254 104 t f f;
#X obj 281 133 int;
#X obj 254 150 -;
#N canvas 3 85 579 581 h2rgb 0;
#X obj 171 79 t f f;
#X obj 171 332 spigot;
#X obj 204 168 == 0;
#X obj 204 123 int;
#X msg 171 362 1 \$1 0;
#X obj 221 332 spigot;
#X obj 271 332 spigot;
#X obj 321 332 spigot;
#X obj 254 168 == 1;
#X obj 304 168 == 2;
#X obj 354 168 == 3;
#X obj 371 332 spigot;
#X obj 421 332 spigot;
#X obj 404 168 == 4;
#X obj 454 168 == 5;
#X msg 221 362 \$1 1 0;
#X obj 171 404 t a;
#X obj 95 246 abs;
#X obj 95 226 - 1;
#X obj 68 282 -;
#X msg 68 246 1;
#X msg 271 362 0 1 \$1;
#X msg 321 362 0 \$1 1;
#X msg 371 362 \$1 0 1;
#X msg 421 362 1 0 \$1;
#X obj 114 162 int;
#X obj 95 206 -;
#X obj 114 142 / 2;
#X obj 114 183 * 2;
#X obj 68 118 t f f f;
#X obj 171 48 inlet;
#X obj 171 439 outlet;
#X connect 0 0 29 0;
#X connect 0 1 3 0;
#X connect 1 0 4 0;
#X connect 2 0 1 1;
#X connect 3 0 2 0;
#X connect 3 0 8 0;
#X connect 3 0 9 0;
#X connect 3 0 10 0;
#X connect 3 0 13 0;
#X connect 3 0 14 0;
#X connect 4 0 16 0;
#X connect 5 0 15 0;
#X connect 6 0 21 0;
#X connect 7 0 22 0;
#X connect 8 0 5 1;
#X connect 9 0 6 1;
#X connect 10 0 7 1;
#X connect 11 0 23 0;
#X connect 12 0 24 0;
#X connect 13 0 11 1;
#X connect 14 0 12 1;
#X connect 15 0 16 0;
#X connect 16 0 31 0;
#X connect 17 0 19 1;
#X connect 18 0 17 0;
#X connect 19 0 1 0;
#X connect 19 0 5 0;
#X connect 19 0 6 0;
#X connect 19 0 7 0;
#X connect 19 0 11 0;
#X connect 19 0 12 0;
#X connect 20 0 19 0;
#X connect 21 0 16 0;
#X connect 22 0 16 0;
#X connect 23 0 16 0;
#X connect 24 0 16 0;
#X connect 25 0 28 0;
#X connect 26 0 18 0;
#X connect 27 0 25 0;
#X connect 28 0 26 1;
#X connect 29 0 20 0;
#X connect 29 1 26 0;
#X connect 29 2 27 0;
#X connect 30 0 0 0;
#X restore 158 176 pd h2rgb;
#X obj 254 83 + 0.9;
#X obj 182 240 outlet;
#X connect 0 0 2 0;
#X connect 1 0 3 0;
#X connect 2 0 9 0;
#X connect 2 0 4 0;
#X connect 3 0 2 1;
#X connect 4 0 8 0;
#X connect 5 0 7 0;
#X connect 5 1 6 0;
#X connect 6 0 7 1;
#X connect 7 0 2 1;
#X connect 8 0 10 0;
#X connect 9 0 5 0;
#X restore 575 251 pd color;
#X obj 249 117 t a b;
#X obj 500 315 GEMglLineWidth 2;
#X obj 249 89 route contours epsilon area;
#X floatatom 311 113 5 0 0 0 - - -;
#X obj 249 64 inlet;
#X obj 512 202 t b a;
#X connect 0 1 9 0;
#X connect 2 0 13 1;
#X connect 3 0 14 0;
#X connect 4 0 6 0;
#X connect 5 0 4 0;
#X connect 5 1 8 0;
#X connect 6 0 5 0;
#X connect 6 1 4 1;
#X connect 7 0 11 0;
#X connect 7 1 17 0;
#X connect 8 0 10 0;
#X connect 8 1 7 0;
#X connect 9 0 13 0;
#X connect 9 1 6 0;
#X connect 9 2 3 0;
#X connect 10 0 2 0;
#X connect 11 0 16 0;
#X connect 12 0 25 0;
#X connect 13 0 1 0;
#X connect 14 0 21 0;
#X connect 15 0 10 1;
#X connect 16 0 2 1;
#X connect 17 0 18 0;
#X connect 18 0 2 2;
#X connect 19 0 14 1;
#X connect 20 0 0 0;
#X connect 20 1 19 0;
#X connect 21 0 15 0;
#X connect 22 0 20 0;
#X connect 22 1 23 0;
#X connect 24 0 22 0;
#X connect 25 0 19 1;
#X connect 25 1 3 1;
#X restore 370 490 pd drawcontours;
#X obj 515 677 list split 2;
#X obj 520 776 list append;
#X obj 549 750 t b a;
#X obj 549 730 list split 2;
#X obj 549 704 t b a b;
#X obj 515 615 t a b;
#X obj 515 587 route contours epsilon area;
#X floatatom 577 611 5 0 0 0 - - -;
#X obj 515 562 inlet;
#X obj 637 771 unpack;
#X obj 637 816 max;
#X obj 637 837 f;
#X obj 637 795 t f f;
#X obj 667 816 max;
#X obj 667 837 f;
#X obj 637 863 -;
#X msg 686 767 0;
#X obj 707 816 max;
#X obj 707 837 f;
#X obj 707 795 t f f;
#X obj 737 816 max;
#X obj 737 837 f;
#X obj 707 863 -;
#X obj 182 49 pix_separator;
#X obj 155 -12 t b a;
#X msg 89 39 frame 3;
#X floatatom 380 -24 5 0 0 0 - - -;
#X msg 380 0 open images/Pictures/herbier\$1.png;
#X obj 333 414 nbx 5 14 -1e+37 1e+37 0 1 empty empty empty 0 -8 0 10
-262144 -1 -1 30 256;
#X msg 332 434 area \$1;
#X floatatom 616 615 5 0 0 0 - - -;
#X connect 1 0 0 0;
#X connect 2 0 0 0;
#X connect 3 0 59 0;
#X connect 4 0 5 0;
#X connect 5 0 1 0;
#X connect 6 0 5 0;
#X connect 11 0 3 0;
#X connect 11 1 7 0;
#X connect 11 2 8 0;
#X connect 11 3 9 0;
#X connect 11 4 10 0;
#X connect 12 0 15 0;
#X connect 13 0 70 0;
#X connect 14 0 71 0;
#X connect 15 0 103 0;
#X connect 16 0 72 0;
#X connect 17 0 16 0;
#X connect 18 0 19 0;
#X connect 19 0 13 0;
#X connect 20 0 16 0;
#X connect 21 0 16 0;
#X connect 22 0 59 0;
#X connect 23 0 22 0;
#X connect 24 0 28 0;
#X connect 25 0 34 0;
#X connect 26 0 34 0;
#X connect 27 0 34 0;
#X connect 28 0 34 0;
#X connect 34 0 58 0;
#X connect 35 0 38 0;
#X connect 36 0 35 1;
#X connect 37 0 56 0;
#X connect 39 0 36 0;
#X connect 40 0 41 0;
#X connect 42 0 43 0;
#X connect 43 0 40 1;
#X connect 44 0 45 0;
#X connect 46 0 47 0;
#X connect 47 0 44 1;
#X connect 48 0 49 0;
#X connect 50 0 51 0;
#X connect 51 0 48 1;
#X connect 56 0 13 0;
#X connect 57 0 34 0;
#X connect 57 1 40 0;
#X connect 58 0 71 0;
#X connect 58 1 48 0;
#X connect 59 0 57 0;
#X connect 61 0 62 0;
#X connect 63 0 64 0;
#X connect 64 0 61 1;
#X connect 65 0 59 2;
#X connect 66 0 16 0;
#X connect 67 0 34 1;
#X connect 68 0 14 1;
#X connect 69 0 104 0;
#X connect 71 0 78 0;
#X connect 71 1 61 0;
#X connect 72 0 11 0;
#X connect 72 1 35 0;
#X connect 73 0 74 0;
#X connect 74 0 24 0;
#X connect 75 0 78 0;
#X connect 76 0 75 0;
#X connect 78 0 44 0;
#X connect 78 1 79 0;
#X connect 78 1 86 0;
#X connect 80 1 84 0;
#X connect 81 0 83 0;
#X connect 82 0 81 0;
#X connect 82 1 89 0;
#X connect 83 0 82 0;
#X connect 83 1 81 1;
#X connect 84 1 83 0;
#X connect 85 0 80 0;
#X connect 85 1 96 0;
#X connect 86 0 85 0;
#X connect 86 1 87 0;
#X connect 86 2 110 0;
#X connect 88 0 86 0;
#X connect 89 0 92 0;
#X connect 89 1 99 0;
#X connect 90 0 91 0;
#X connect 91 0 90 1;
#X connect 91 0 95 0;
#X connect 92 0 90 0;
#X connect 92 1 93 0;
#X connect 93 0 94 0;
#X connect 94 0 93 1;
#X connect 94 0 95 1;
#X connect 96 0 91 1;
#X connect 96 0 94 1;
#X connect 96 0 101 1;
#X connect 96 0 98 1;
#X connect 97 0 98 0;
#X connect 98 0 97 1;
#X connect 98 0 102 0;
#X connect 99 0 97 0;
#X connect 99 1 100 0;
#X connect 100 0 101 0;
#X connect 101 0 100 1;
#X connect 101 0 102 1;
#X connect 103 0 16 0;
#X connect 104 0 103 0;
#X connect 104 1 15 0;
#X connect 105 0 0 0;
#X connect 106 0 107 0;
#X connect 107 0 15 0;
#X connect 108 0 109 0;
#X connect 109 0 78 0;
