#N canvas 824 120 997 933 10;
#X obj 12 84 gemwin;
#X msg 12 38 create \, 1;
#X msg 27 61 0 \, destroy;
#X obj 182 243 pix_grey;
#X obj 12 -8 loadbang;
#X obj 12 14 t b b;
#X obj 70 -9 bng 15 250 50 0 empty empty empty 17 7 0 10 -262144 -1
-1;
#X floatatom 193 219 4 0 0 1 width - -;
#X floatatom 203 201 4 0 0 1 height - -;
#X floatatom 213 183 4 0 0 1 bytes/pixel - -;
#X floatatom 223 166 5 0 0 1 coulorspace - -;
#X obj 182 145 pix_info . . . .;
#X msg 257 2 dimen 640 480;
#X obj 50 648 pix_texture;
#X obj 255 382 pix_opencv_edge;
#X obj 182 28 pix_image images/Pictures/herbier2.png;
#X obj 182 72 pix_resize 640 480;
#X obj 434 516 list split 2;
#X msg 318 62 dimen 64 48;
#X obj 50 561 loadbang;
#X msg 50 582 quality 0;
#X msg 318 82 dimen 160 120;
#X msg 408 62 dimen 640 480;
#X msg 338 244 dim \$1;
#X floatatom 336 224 5 0 0 0 - - -;
#X obj 630 253 tgl 15 0 empty empty empty 17 7 0 10 -262144 -1 -1 1
1;
#X msg 588 297 shape 2;
#X msg 578 277 shape 1;
#X msg 598 316 shape 3;
#X msg 572 253 mode \$1;
#X text 635 278 use rectangle structuring element;
#X text 653 313 use cross-shaped structuring element;
#X text 647 295 use elliptic structuring element;
#X text 653 253 switch open/close and erode/dilate modes;
#X text 657 337 number of iterations -10/+10 (be carefull);
#X obj 188 322 pix_opencv_morphology;
#X obj 182 8 t a b;
#X obj 67 187 spigot;
#X obj 100 163 == 0;
#X obj 59 606 r mon;
#X obj 67 207 s mon;
#X obj 100 142 r mon-step;
#X obj 59 304 spigot;
#X obj 59 324 s mon;
#X obj 92 259 r mon-step;
#X obj 92 280 == 1;
#X obj 187 528 spigot;
#X obj 187 548 s mon;
#X obj 220 483 r mon-step;
#X obj 220 504 == 3;
#X obj 71 403 spigot;
#X obj 71 423 s mon;
#X obj 104 358 r mon-step;
#X obj 104 379 == 2;
#X obj 249 626 vradio 15 1 0 8 mon-step empty empty 0 -8 0 10 -262144
-1 -1 0;
#X text 267 625 origin;
#X text 267 640 binary;
#X text 267 657 morphology;
#X obj 59 628 pix_separator;
#X obj 188 301 t a a;
#X obj 187 348 t a a;
#X obj 182 271 pix_opencv_threshold;
#X text 267 671 edge;
#X obj 81 463 spigot;
#X obj 81 483 s mon;
#X obj 114 418 r mon-step;
#X obj 114 439 == 3;
#X obj 388 228 nbx 5 14 -1e+37 1e+37 0 1 empty empty empty 0 -8 0 10
-262144 -1 -1 84 256;
#X msg 406 80 dimen 320 240;
#X obj 598 337 nbx 5 14 -1e+37 1e+37 0 1 empty empty empty 0 -8 0 10
-262144 -1 -1 -5 256;
#X obj 352 384 nbx 5 14 -1e+37 1e+37 0 1 empty empty empty 0 -8 0 10
-262144 -1 -1 0 256;
#X msg 89 39 frame 15;
#X obj 607 772 GEMglEnd;
#X obj 646 708 GEMglVertex2d;
#X obj 685 405 gemlist;
#X obj 439 615 list append;
#X obj 468 589 t b a;
#X obj 468 569 list split 2;
#X obj 564 629 unpack;
#X obj 537 609 t b a;
#X obj 468 543 t b a b;
#X obj 646 539 gemlist;
#X obj 564 649 * 8;
#X obj 724 374 gemhead 1;
#X obj 182 -10 gemhead 2;
#X obj 607 743 gemlist;
#X obj 685 438 color 1 0 0 1;
#X obj 690 497 GEMglBegin GL_LINE_LOOP;
#X obj 50 668 square 4;
#X obj 351 691 route contours;
#X obj 351 711 list split 2;
#X obj 356 810 list append;
#X obj 385 784 t b a;
#X obj 385 764 list split 2;
#X obj 481 824 unpack;
#X obj 454 804 t b a;
#X obj 385 738 t b a b;
#X obj 514 844 * 8;
#X obj 481 844 * 8;
#X obj 628 839 translateXYZ;
#X floatatom 533 886 5 0 0 0 - - -;
#X floatatom 478 893 5 0 0 0 - - -;
#X obj 410 871 print;
#X obj 630 796 gemlist;
#X obj 811 696 gemhead;
#X obj 797 827 gemlist;
#X obj 797 908 circle 0.3 33;
#X obj 811 744 route gem_state;
#X obj 811 764 route float;
#X obj 811 723 t a a;
#X obj 797 848 GEMglLoadIdentity;
#X obj 797 883 translateXYZ 0.5 0 -4;
#X obj 763 619 translateXYZ -4 -4 -4;
#X obj 613 683 - 4;
#X obj 598 649 * -8;
#X obj 697 642 + 4;
#X obj 187 415 t a a b;
#N canvas 3 85 450 300 color 0;
#X obj 228 116 random 16;
#X obj 228 136 / 16;
#X obj 228 156 list;
#X obj 228 176 list;
#X obj 228 95 until;
#X msg 228 75 3;
#X obj 207 213 list;
#X obj 201 45 t b b b;
#X msg 357 107 1;
#X obj 207 234 outlet;
#X obj 202 12 inlet;
#X connect 0 0 1 0;
#X connect 1 0 2 0;
#X connect 2 0 3 0;
#X connect 3 0 2 1;
#X connect 3 0 6 1;
#X connect 4 0 0 0;
#X connect 5 0 4 0;
#X connect 6 0 9 0;
#X connect 7 0 6 0;
#X connect 7 1 5 0;
#X connect 7 2 8 0;
#X connect 8 0 2 1;
#X connect 10 0 7 0;
#X restore 564 404 pd color;
#X obj 434 494 t a b;
#X obj 182 99 t a a;
#X obj 635 207 loadbang;
#X msg 637 229 1;
#X msg 262 434 epsilon \$1;
#X obj 689 472 GEMglLineWidth 2;
#X obj 434 466 route contours epsilon area;
#X floatatom 496 490 5 0 0 0 - - -;
#X obj 263 414 nbx 5 14 -1e+37 1e+37 0 1 empty empty empty 0 -8 0 10
-262144 -1 -1 24 256;
#X msg 380 0 open images/Pictures/herbier2.png;
#X obj 158 596 pix_opencv_contours_convexhull2;
#X obj 187 462 pix_opencv_contours_convexhull2;
#X connect 1 0 0 0;
#X connect 2 0 0 0;
#X connect 3 0 61 0;
#X connect 4 0 5 0;
#X connect 5 0 1 0;
#X connect 6 0 5 0;
#X connect 11 0 3 0;
#X connect 11 1 7 0;
#X connect 11 2 8 0;
#X connect 11 3 9 0;
#X connect 11 4 10 0;
#X connect 12 0 15 0;
#X connect 13 0 88 0;
#X connect 14 0 116 0;
#X connect 15 0 16 0;
#X connect 16 0 119 0;
#X connect 17 1 80 0;
#X connect 18 0 16 0;
#X connect 19 0 20 0;
#X connect 20 0 13 0;
#X connect 21 0 16 0;
#X connect 22 0 16 0;
#X connect 23 0 61 0;
#X connect 24 0 23 0;
#X connect 25 0 29 0;
#X connect 26 0 35 0;
#X connect 27 0 35 0;
#X connect 28 0 35 0;
#X connect 29 0 35 0;
#X connect 35 0 60 0;
#X connect 36 0 15 0;
#X connect 36 1 127 0;
#X connect 37 0 40 0;
#X connect 38 0 37 1;
#X connect 39 0 58 0;
#X connect 41 0 38 0;
#X connect 42 0 43 0;
#X connect 44 0 45 0;
#X connect 45 0 42 1;
#X connect 46 0 47 0;
#X connect 48 0 49 0;
#X connect 49 0 46 1;
#X connect 50 0 51 0;
#X connect 52 0 53 0;
#X connect 53 0 50 1;
#X connect 58 0 13 0;
#X connect 59 0 35 0;
#X connect 59 1 42 0;
#X connect 60 0 116 0;
#X connect 60 1 50 0;
#X connect 61 0 59 0;
#X connect 63 0 64 0;
#X connect 65 0 66 0;
#X connect 66 0 63 1;
#X connect 67 0 61 2;
#X connect 68 0 16 0;
#X connect 69 0 35 1;
#X connect 70 0 14 1;
#X connect 71 0 0 0;
#X connect 73 0 85 1;
#X connect 74 0 86 0;
#X connect 75 0 77 0;
#X connect 76 0 75 0;
#X connect 76 1 79 0;
#X connect 77 0 76 0;
#X connect 77 1 75 1;
#X connect 78 0 82 0;
#X connect 78 1 114 0;
#X connect 79 0 81 0;
#X connect 79 1 78 0;
#X connect 80 0 85 0;
#X connect 80 1 77 0;
#X connect 80 2 74 0;
#X connect 81 0 73 0;
#X connect 82 0 113 0;
#X connect 83 0 74 1;
#X connect 84 0 36 0;
#X connect 85 0 72 0;
#X connect 86 0 123 0;
#X connect 87 0 81 1;
#X connect 89 0 90 0;
#X connect 90 1 96 0;
#X connect 91 0 93 0;
#X connect 92 0 91 0;
#X connect 92 1 95 0;
#X connect 93 0 92 0;
#X connect 93 1 91 1;
#X connect 94 0 98 0;
#X connect 94 1 97 0;
#X connect 95 0 105 0;
#X connect 95 1 94 0;
#X connect 96 1 93 0;
#X connect 97 0 100 0;
#X connect 97 0 111 2;
#X connect 98 0 101 0;
#X connect 98 0 111 1;
#X connect 104 0 109 0;
#X connect 105 0 110 0;
#X connect 107 0 108 0;
#X connect 109 0 107 0;
#X connect 109 1 105 1;
#X connect 110 0 111 0;
#X connect 111 0 106 0;
#X connect 113 0 73 1;
#X connect 114 0 115 0;
#X connect 115 0 73 2;
#X connect 116 0 129 0;
#X connect 116 1 63 0;
#X connect 117 0 86 1;
#X connect 118 0 17 0;
#X connect 118 1 117 0;
#X connect 119 0 11 0;
#X connect 119 1 37 0;
#X connect 120 0 121 0;
#X connect 121 0 25 0;
#X connect 122 0 129 0;
#X connect 123 0 87 0;
#X connect 124 0 118 0;
#X connect 124 1 125 0;
#X connect 126 0 122 0;
#X connect 127 0 15 0;
#X connect 129 0 46 0;
#X connect 129 1 124 0;
