#N canvas 881 160 772 745 10;
#X obj 182 282 pix_opencv_contours_convexhull2;
#X obj 182 -10 gemhead;
#X obj 12 84 gemwin;
#X msg 12 38 create \, 1;
#X msg 27 61 0 \, destroy;
#X obj 182 203 pix_grey;
#X obj 12 -8 loadbang;
#X obj 12 14 t b b;
#X obj 70 -9 bng 15 250 50 0 empty empty empty 17 7 0 10 -262144 -1
-1;
#X floatatom 193 179 4 0 0 1 width - -;
#X floatatom 203 161 4 0 0 1 height - -;
#X floatatom 213 143 4 0 0 1 bytes/pixel - -;
#X floatatom 223 126 5 0 0 1 coulorspace - -;
#X obj 182 105 pix_info . . . .;
#X msg 257 2 dimen 640 480;
#X obj 182 303 pix_texture;
#X obj 368 363 print;
#X floatatom 330 212 5 0 0 0 - - -;
#X msg 347 186 dim \$1;
#X floatatom 398 189 5 0 0 0 - - -;
#X text 434 188 value to correct the theshold;
#X obj 182 249 pix_opencv_edge;
#X obj 182 28 pix_image images/Pictures/herbier2.png;
#X obj 182 323 rectangle 4 3;
#X msg 375 0 open images/Pictures/herbier2.png;
#X obj 243 453 gemvertexbuffer;
#X obj 181 74 pix_resize 640 480;
#X obj 429 365 route contours;
#X obj 429 446 list split 2;
#X obj 463 493 list split 2;
#X obj 497 535 list append;
#X connect 0 0 15 0;
#X connect 0 1 16 0;
#X connect 0 1 27 0;
#X connect 1 0 22 0;
#X connect 3 0 2 0;
#X connect 4 0 2 0;
#X connect 5 0 21 0;
#X connect 6 0 7 0;
#X connect 7 0 3 0;
#X connect 8 0 7 0;
#X connect 13 0 5 0;
#X connect 13 1 9 0;
#X connect 13 2 10 0;
#X connect 13 3 11 0;
#X connect 13 4 12 0;
#X connect 14 0 22 0;
#X connect 15 0 23 0;
#X connect 17 0 21 1;
#X connect 18 0 21 0;
#X connect 19 0 18 0;
#X connect 21 0 0 0;
#X connect 22 0 26 0;
#X connect 24 0 22 0;
#X connect 26 0 13 0;
#X connect 27 0 28 0;
#X connect 28 1 29 0;
#X connect 29 1 30 0;
