#N canvas 751 343 962 526 10;
#X obj 155 245 pix_opencv_matchshape;
#X obj 155 63 gemhead;
#X obj 155 266 pix_texture;
#X obj 155 287 rectangle 4 3;
#X obj 20 195 gemwin;
#X msg 20 142 create \, 1;
#X msg 33 168 0 \, destroy;
#X msg 186 112 contour 4 2 0 0 0 1 1 1 1 0;
#X obj 278 275 print;
#X msg 210 196 method \$1;
#X floatatom 210 176 5 0 0 0 - - -;
#X msg 196 132 template 4 2 0 0 0 1 1 1 1 0;
#X msg 206 152 template 4 2 2 0 4 1 1 1 1 0;
#X msg 176 92 contour 6 2 0 0 0 1 1 1 1 0 -0.5 -0.5;
#X floatatom 280 176 5 0 0 0 - - -;
#X msg 280 196 threshold \$1;
#X msg 233 61 contour 4 2 2 0 4 1 1 1 1 0;
#X obj 325 276 route match_vec template_vec;
#X obj 325 385 unpack;
#X text 332 368 found corresponding contour;
#X floatatom 313 413 5 0 0 0 - - -;
#X floatatom 360 413 5 0 0 0 - - -;
#X text 312 426 id;
#X text 360 426 absolute difference from template;
#X floatatom 407 336 5 0 0 0 - - -;
#X text 441 333 number of loaded contour;
#X connect 0 0 2 0;
#X connect 0 1 8 0;
#X connect 0 1 17 0;
#X connect 1 0 0 0;
#X connect 2 0 3 0;
#X connect 5 0 4 0;
#X connect 6 0 4 0;
#X connect 7 0 0 0;
#X connect 9 0 0 0;
#X connect 10 0 9 0;
#X connect 11 0 0 0;
#X connect 12 0 0 0;
#X connect 13 0 0 0;
#X connect 14 0 15 0;
#X connect 15 0 0 0;
#X connect 16 0 0 0;
#X connect 17 0 18 0;
#X connect 17 1 24 0;
#X connect 18 0 20 0;
#X connect 18 1 21 0;
