#N canvas 771 245 1032 521 10;
#X obj 634 81 pix_video;
#X obj 634 43 gemhead;
#X obj 634 435 pix_texture;
#X obj 334 170 gemwin;
#X msg 334 124 create \, 1;
#X msg 349 147 0 \, destroy;
#X obj 634 206 pix_grey;
#X obj 334 78 loadbang;
#X obj 739 428 print;
#X msg 377 225 loadDist config-cam1_dist;
#X msg 376 243 loadIntra config-cam1_intra;
#X obj 649 385 r patreco_in;
#X obj 341 379 s patreco_in;
#X obj 358 202 bng 15 250 50 0 empty empty empty 17 7 0 10 -262144
-1 -1;
#X obj 334 100 t b b;
#X obj 392 77 bng 15 250 50 0 empty empty empty 17 7 0 10 -262144 -1
-1;
#X obj 634 100 cnv 15 160 100 empty empty empty 20 12 0 14 -24198 -66577
0;
#X floatatom 645 182 4 0 0 1 width - -;
#X floatatom 655 164 4 0 0 1 height - -;
#X floatatom 665 146 4 0 0 1 bytes/pixel - -;
#X floatatom 675 129 5 0 0 1 coulorspace - -;
#X obj 634 108 pix_info . . . .;
#X msg 709 55 dimen 640 480;
#X obj 634 466 square 3;
#X obj 651 351 pix_opencv_athreshold;
#X floatatom 815 306 5 0 0 0 - - -;
#X text 847 305 ( default 3 );
#X msg 651 233 method \$1;
#X msg 669 253 dim \$1;
#X floatatom 720 256 5 0 0 0 - - -;
#X text 756 255 value to correct the theshold;
#X text 813 292 blockSize;
#X obj 725 234 tgl 15 0 empty empty empty 17 7 0 10 -262144 -1 -1 0
1;
#X text 743 228 0 = CV_ADAPTIVE_THRESH_MEAN_C;
#X text 743 238 1 = CV_ADAPTIVE_THRESH_GAUSSIAN_C;
#X obj 973 156 loadbang;
#X msg 989 210 45;
#X msg 903 181 5;
#X msg 63 77 monitorStage \$1;
#X obj 63 56 hradio 15 1 0 8 empty empty empty 0 -8 0 10 -262144 -1
-1 0;
#X obj 28 413 s patreco_in;
#X msg 64 120 fixedThresh \$1;
#X floatatom 64 100 5 0 0 0 - - -;
#X floatatom 197 131 5 0 0 0 - - -;
#X msg 64 160 adaptThresh \$1;
#X floatatom 66 186 5 0 0 0 - - -;
#X msg 66 206 adaptBlockSize \$1;
#X floatatom 66 226 5 0 0 0 - - -;
#X msg 66 246 confidenceThresh \$1;
#X obj 63 16 hradio 15 1 0 8 empty empty empty 0 -8 0 10 -262144 -1
-1 0;
#X msg 63 34 threshMode \$1;
#X obj 387 271 t b b b;
#X obj 634 409 pix_opencv_patreco;
#X msg 79 314 ARTpattern \$1;
#X obj 86 282 tgl 15 0 empty empty empty 17 7 0 10 -262144 -1 -1 0
1;
#X obj 91 357 tgl 15 0 empty empty empty 17 7 0 10 -262144 -1 -1 0
1;
#X msg 91 377 dilate \$1;
#X obj 196 151 * 2;
#X obj 195 172 + 1;
#X floatatom 88 138 5 0 0 0 - - -;
#X msg 423 329 load 1 patternLibrary/pattern1.png;
#X msg 395 310 load 2 patternLibrary/pattern2.png;
#X msg 387 290 load 3 patternLibrary/pattern3.png;
#X connect 0 0 21 0;
#X connect 1 0 0 0;
#X connect 2 0 23 0;
#X connect 4 0 3 0;
#X connect 5 0 3 0;
#X connect 6 0 52 0;
#X connect 7 0 14 0;
#X connect 9 0 12 0;
#X connect 10 0 12 0;
#X connect 11 0 52 0;
#X connect 13 0 9 0;
#X connect 13 0 10 0;
#X connect 13 0 51 0;
#X connect 14 0 4 0;
#X connect 14 1 13 0;
#X connect 15 0 14 0;
#X connect 21 0 6 0;
#X connect 21 1 17 0;
#X connect 21 2 18 0;
#X connect 21 3 19 0;
#X connect 21 4 20 0;
#X connect 22 0 0 0;
#X connect 25 0 24 2;
#X connect 27 0 24 0;
#X connect 28 0 24 0;
#X connect 29 0 28 0;
#X connect 32 0 27 0;
#X connect 35 0 36 0;
#X connect 35 0 37 0;
#X connect 36 0 25 0;
#X connect 37 0 29 0;
#X connect 38 0 40 0;
#X connect 39 0 38 0;
#X connect 41 0 40 0;
#X connect 42 0 41 0;
#X connect 43 0 57 0;
#X connect 44 0 40 0;
#X connect 45 0 46 0;
#X connect 46 0 40 0;
#X connect 47 0 48 0;
#X connect 48 0 40 0;
#X connect 49 0 50 0;
#X connect 50 0 40 0;
#X connect 51 0 62 0;
#X connect 51 1 61 0;
#X connect 51 2 60 0;
#X connect 52 0 2 0;
#X connect 52 1 8 0;
#X connect 53 0 40 0;
#X connect 54 0 53 0;
#X connect 55 0 56 0;
#X connect 56 0 40 0;
#X connect 57 0 58 0;
#X connect 58 0 46 0;
#X connect 59 0 44 0;
#X connect 60 0 12 0;
#X connect 61 0 12 0;
#X connect 62 0 12 0;
