#N canvas 885 123 1032 721 10;
#X obj 634 435 pix_texture;
#X obj 285 165 gemwin;
#X msg 285 119 create \, 1;
#X msg 300 142 0 \, destroy;
#X obj 285 73 loadbang;
#X msg 472 300 loadDist config-cam1_dist;
#X msg 471 318 loadIntra config-cam1_intra;
#X obj 881 360 r patreco_in;
#X obj 258 491 s patreco_in;
#X obj 358 202 bng 15 250 50 0 empty empty empty 17 7 0 10 -262144
-1 -1;
#X obj 392 77 bng 15 250 50 0 empty empty empty 17 7 0 10 -262144 -1
-1;
#X obj 651 351 pix_opencv_athreshold;
#X floatatom 815 306 5 0 0 0 - - -;
#X text 847 305 ( default 3 );
#X msg 651 233 method \$1;
#X msg 669 253 dim \$1;
#X floatatom 720 256 5 0 0 0 - - -;
#X text 756 255 value to correct the theshold;
#X text 813 292 blockSize;
#X obj 725 234 tgl 15 0 empty empty empty 17 7 0 10 -262144 -1 -1 0
1;
#X text 743 228 0 = CV_ADAPTIVE_THRESH_MEAN_C;
#X text 743 238 1 = CV_ADAPTIVE_THRESH_GAUSSIAN_C;
#X obj 973 156 loadbang;
#X msg 989 210 45;
#X msg 903 181 5;
#X msg 63 77 monitorStage \$1;
#X obj 63 56 hradio 15 1 0 8 empty empty empty 0 -8 0 10 -262144 -1
-1 1;
#X obj 28 413 s patreco_in;
#X msg 64 120 fixedThresh \$1;
#X floatatom 64 100 5 0 0 0 - - -;
#X floatatom 64 140 5 0 0 0 - - -;
#X msg 64 160 adaptThresh \$1;
#X floatatom 66 186 5 0 0 0 - - -;
#X msg 66 206 adaptBlockSize \$1;
#X floatatom 66 226 5 0 0 0 - - -;
#X msg 66 246 confidenceThresh \$1;
#X obj 63 16 hradio 15 1 0 8 empty empty empty 0 -8 0 10 -262144 -1
-1 0;
#X msg 63 34 threshMode \$1;
#X obj 634 409 pix_opencv_patreco;
#X obj 57 628 pd~ -ninsig 0 -noutsig 0 -fifo 20;
#X msg 72 588 pd~ stop;
#X msg 67 546 pd~ start -nogui _simu.pd;
#X msg 160 594 scale \$1;
#X floatatom 160 576 5 0 0 0 - - -;
#X floatatom 223 576 5 0 0 0 - - -;
#X msg 223 594 rotate \$1;
#X floatatom 320 554 5 0 0 0 - - -;
#X floatatom 363 553 5 0 0 0 - - -;
#X obj 321 591 pack 2 0;
#X obj 362 569 t b f;
#X msg 321 613 translate \$1 \$2;
#X obj 713 21 gemhead;
#X obj 634 466 square 4;
#X obj 377 309 until 3;
#X obj 377 333 f;
#X obj 403 333 + 1;
#X obj 406 268 bng 15 250 50 0 empty empty empty 17 7 0 10 -262144
-1 -1;
#X obj 406 289 t b b;
#X obj 285 95 t b b b;
#X msg 371 120 \; pd dsp 1;
#X msg 74 523 pd~ start _simu.pd;
#X obj 713 45 pix_share_read 312 512 512 1;
#X msg 243 417 ARTpattern 0;
#X msg 78 319 ARTpattern \$1;
#X obj 81 292 tgl 15 0 empty empty empty 17 7 0 10 -262144 -1 -1 0
1;
#X obj 360 225 t b b b;
#X floatatom 416 381 5 0 0 0 - - -;
#X msg 519 542 pattern \$1;
#X obj 431 415 t f b;
#X msg 623 551 1 \, 5 \, 7 \, 9 \, 10 \, 13 \, 14;
#X obj 527 412 print;
#X floatatom 519 525 5 0 0 0 - - -;
#X msg 433 309 1;
#X msg 377 290 14;
#X obj 519 507 hradio 15 1 0 14 empty empty empty 0 -8 0 10 -262144
-1 -1 4;
#X msg 91 370 dilate \$1;
#X obj 101 344 tgl 15 0 empty empty empty 17 7 0 10 -262144 -1 -1 0
1;
#X obj 192 179 * 2;
#X obj 192 200 + 1;
#X floatatom 192 162 5 0 0 0 - - -;
#X obj 201 112 loadbang;
#X msg 206 131 1;
#X msg 227 289 0;
#X obj 537 83 gemhead;
#X obj 537 143 pix_image ./images/Pictures/herbier16.png;
#X obj 537 177 pix_grey;
#X obj 600 386 bng 15 250 50 0 empty empty empty 17 7 0 10 -262144
-1 -1;
#X obj 502 126 bng 15 250 50 0 empty empty empty 17 7 0 10 -262144
-1 -1;
#X msg 616 114 open ./images/Pictures/herbier\$1.png;
#X obj 615 70 hradio 15 1 0 18 empty empty empty 0 -8 0 10 -262144
-1 -1 0;
#X floatatom 615 90 5 0 0 0 - - -;
#X obj 737 429 route pattern_pos pattern_list;
#X obj 826 451 list prepend set;
#X obj 826 472 list trim;
#X msg 826 493 0 0 0 0 0 0 0 0 0 0 0 0 1 0;
#X msg 355 454 load \$1 ./images/Herbarium/icone\$1.png;
#X msg 377 352 load \$1 ./images/Herbarium/icone\$1.png;
#X obj 631 371 t b a b;
#X obj 797 608 list append;
#X obj 797 628 list append;
#X obj 734 654 list append;
#X obj 741 466 print;
#X msg 826 493 0 0 0 1 0 0 0 0 0 0 0 0 0 0;
#X connect 0 0 52 0;
#X connect 2 0 1 0;
#X connect 3 0 1 0;
#X connect 4 0 58 0;
#X connect 5 0 8 0;
#X connect 6 0 8 0;
#X connect 7 0 38 0;
#X connect 9 0 65 0;
#X connect 10 0 58 0;
#X connect 12 0 11 2;
#X connect 14 0 11 0;
#X connect 15 0 11 0;
#X connect 16 0 15 0;
#X connect 19 0 14 0;
#X connect 22 0 23 0;
#X connect 22 0 24 0;
#X connect 23 0 12 0;
#X connect 24 0 16 0;
#X connect 25 0 27 0;
#X connect 26 0 25 0;
#X connect 28 0 27 0;
#X connect 29 0 28 0;
#X connect 30 0 31 0;
#X connect 31 0 27 0;
#X connect 32 0 33 0;
#X connect 33 0 27 0;
#X connect 34 0 35 0;
#X connect 35 0 27 0;
#X connect 36 0 37 0;
#X connect 37 0 27 0;
#X connect 38 0 0 0;
#X connect 38 1 91 0;
#X connect 38 1 101 0;
#X connect 40 0 39 0;
#X connect 41 0 39 0;
#X connect 42 0 39 0;
#X connect 43 0 42 0;
#X connect 44 0 45 0;
#X connect 45 0 39 0;
#X connect 46 0 48 0;
#X connect 47 0 49 0;
#X connect 48 0 50 0;
#X connect 49 0 48 0;
#X connect 49 1 48 1;
#X connect 50 0 39 0;
#X connect 51 0 61 0;
#X connect 53 0 54 0;
#X connect 54 0 55 0;
#X connect 54 0 96 0;
#X connect 55 0 54 1;
#X connect 56 0 57 0;
#X connect 57 0 73 0;
#X connect 57 1 72 0;
#X connect 58 0 2 0;
#X connect 58 1 9 0;
#X connect 58 1 41 0;
#X connect 58 2 59 0;
#X connect 60 0 39 0;
#X connect 61 0 97 0;
#X connect 62 0 8 0;
#X connect 63 0 27 0;
#X connect 64 0 63 0;
#X connect 65 0 56 0;
#X connect 65 1 62 0;
#X connect 65 2 5 0;
#X connect 65 2 6 0;
#X connect 66 0 68 0;
#X connect 67 0 39 0;
#X connect 68 0 95 0;
#X connect 68 0 67 0;
#X connect 68 1 62 0;
#X connect 71 0 67 0;
#X connect 72 0 54 1;
#X connect 73 0 53 0;
#X connect 74 0 71 0;
#X connect 75 0 27 0;
#X connect 76 0 75 0;
#X connect 77 0 78 0;
#X connect 78 0 32 0;
#X connect 79 0 77 0;
#X connect 80 0 81 0;
#X connect 80 0 82 0;
#X connect 81 0 79 0;
#X connect 81 0 26 0;
#X connect 82 0 76 0;
#X connect 83 0 84 0;
#X connect 84 0 85 0;
#X connect 87 0 84 0;
#X connect 88 0 84 0;
#X connect 89 0 90 0;
#X connect 90 0 88 0;
#X connect 91 1 92 0;
#X connect 92 0 93 0;
#X connect 93 0 94 0;
#X connect 95 0 8 0;
#X connect 96 0 8 0;
#X connect 96 0 70 0;
#X connect 97 1 38 0;
#X connect 98 0 99 0;
#X connect 99 0 98 1;
#X connect 99 0 100 1;
