#N canvas 751 479 679 514 10;
#X obj 334 136 gemwin;
#X msg 349 113 0 \, destroy;
#X obj 334 44 loadbang;
#X obj 334 66 t b b;
#X obj 392 43 bng 15 250 50 0 empty empty empty 17 7 0 10 -262144 -1
-1;
#X msg 372 67 \; pd dsp 1;
#X obj 58 100 pix_image ./images/Herbarium/icone1.png;
#X obj 58 133 pix_texture;
#X msg 334 90 color 1 1 1 1 \, create \, 1;
#X obj 58 318 square;
#X obj 58 182 translateXYZ 2 0 0;
#X obj 58 238 rotateXYZ 0 0 45;
#X obj 58 296 scaleXYZ;
#X floatatom 182 213 5 0 0 0 - - -;
#X obj 351 311 pix_snap 0 0 512 512;
#X obj 351 288 t b a;
#X obj 182 193 r rotate;
#X obj 180 142 unpack;
#X obj 84 260 r scale;
#X obj 351 341 pix_grey;
#X obj 180 123 r translate;
#X obj 351 268 gemhead 51;
#X obj 58 40 gemhead 50;
#X obj 351 375 pix_share_write 312 512 512 1;
#X msg 107 67 open ./images/Herbarium/icone\$1.png;
#X obj 154 32 r pattern;
#X connect 1 0 0 0;
#X connect 2 0 3 0;
#X connect 3 0 8 0;
#X connect 3 1 5 0;
#X connect 4 0 3 0;
#X connect 6 0 7 0;
#X connect 7 0 10 0;
#X connect 8 0 0 0;
#X connect 10 0 11 0;
#X connect 11 0 12 0;
#X connect 12 0 9 0;
#X connect 13 0 11 3;
#X connect 14 0 19 0;
#X connect 15 0 14 0;
#X connect 15 1 14 0;
#X connect 16 0 13 0;
#X connect 17 0 10 1;
#X connect 17 1 10 2;
#X connect 18 0 12 1;
#X connect 18 0 12 2;
#X connect 19 0 23 0;
#X connect 20 0 17 0;
#X connect 21 0 15 0;
#X connect 22 0 6 0;
#X connect 24 0 6 0;
#X connect 25 0 24 0;
