#N canvas 265 95 455 243 10;
#X obj 44 58 pix_opencv_edge;
#X obj 44 78 pix_texture;
#X obj 44 97 square 2;
#X obj 44 38 pix_video;
#X obj 44 18 gemhead;
#X obj -33 76 gemwin;
#X msg -33 56 create \, 1;
#X obj -33 36 loadbang;
#X connect 0 0 1 0;
#X connect 1 0 2 0;
#X connect 3 0 0 0;
#X connect 4 0 3 0;
#X connect 6 0 5 0;
#X connect 7 0 6 0;
