#N canvas 674 205 963 606 10;
#X obj 20 33 cnv 15 430 380 empty empty empty 20 12 0 14 -228856 -66577
0;
#X obj 20 -13 cnv 15 430 40 empty empty empty 20 12 0 14 -195568 -66577
0;
#X obj 19 -109 cnv 15 430 90 empty empty empty 20 12 0 14 -228856 -66577
0;
#X text 24 -145 Class: pix_opencv;
#X obj 455 -186 cnv 15 500 600 empty empty empty 20 12 0 14 -228992
-66577 0;
#X obj 725 -180 gemhead;
#X obj 485 369 pix_texture;
#X obj 661 338 cnv 15 220 70 empty empty empty 20 12 0 14 -195568 -66577
0;
#N canvas 3 81 454 304 gemwin 0;
#X obj 67 89 outlet;
#X obj 67 10 inlet;
#X obj 65 41 route create;
#X msg 67 70 set destroy;
#X msg 182 68 set create;
#N canvas 87 154 247 179 Gem.init 0;
#X obj 118 46 loadbang;
#X msg 118 81 reset;
#X obj 118 113 outlet;
#X connect 0 0 1 0;
#X connect 1 0 2 0;
#X restore 289 80 pd Gem.init;
#X obj 162 241 gemwin;
#X msg 342 184 destroy;
#X msg 283 161 frame 25;
#X obj 164 126 t b b b;
#X msg 161 189 dimen 640 560 \, create \, 1;
#X connect 1 0 2 0;
#X connect 2 0 3 0;
#X connect 2 0 9 0;
#X connect 2 1 4 0;
#X connect 2 1 7 0;
#X connect 3 0 0 0;
#X connect 4 0 0 0;
#X connect 7 0 6 0;
#X connect 8 0 6 0;
#X connect 9 0 10 0;
#X connect 9 2 8 0;
#X connect 10 0 6 0;
#X restore 671 384 pd gemwin;
#X msg 671 364 destroy;
#X obj 737 -153 bng 25 250 50 0 load empty empty 0 -6 0 8 -262144 -1
-1;
#X obj 782 -67 bng 15 250 50 0 empty empty end_reached 20 7 0 10 -262144
-1 -1;
#X floatatom 776 -83 5 0 10000 1 frame# - -, f 5;
#X obj 737 -124 openpanel;
#X obj 725 -65 pix_film;
#X text 669 344 Create window and render;
#N canvas 1 184 299 199 vswitch 0;
#X obj 36 128 outlet;
#X obj 36 26 inlet;
#X obj 130 26 inlet;
#X obj 175 27 inlet;
#X obj 81 61 == 0;
#X obj 36 83 spigot 1;
#X obj 130 84 spigot 0;
#X connect 1 0 5 0;
#X connect 2 0 6 0;
#X connect 3 0 4 0;
#X connect 3 0 6 1;
#X connect 4 0 5 1;
#X connect 5 0 0 0;
#X connect 6 0 0 0;
#X restore 485 -23 pd vswitch;
#X obj 581 -22 tgl 15 0 empty load empty 17 7 0 10 -262144 -1 -1 0
1;
#X obj 485 -56 pix_video;
#X obj 485 -180 gemhead;
#X obj 485 75 pix_grey;
#X obj 544 76 pix_rgba;
#X obj 485 50 spigot 1;
#X text 598 -24 switch source (camera / film);
#X obj 530 5 tgl 15 0 empty load empty 17 7 0 10 -262144 -1 -1 0 1
;
#X text 547 3 switch color mode ( grey / rgba );
#X obj 530 28 == 0;
#X obj 544 50 spigot 0;
#X obj 481 174 cnv 15 400 160 empty empty empty 20 12 0 14 -4034 -66577
0;
#X msg 737 -104 open \$1 \, auto 1;
#X obj 485 137 t a;
#X obj 581 -66 loadbang;
#X msg 581 -44 0;
#X obj 612 -144 == 0;
#X obj 612 -165 t a a;
#X obj 485 390 rectangle 4 3;
#X floatatom 504 188 5 0 0 0 - - -, f 5;
#X floatatom 506 244 5 0 0 0 - - -, f 5;
#X text 27 -11 Arguments: (optional);
#X obj 544 100 alpha;
#X text 25 -161 Synopsis: [pix_opencv_clahe];
#X msg 504 211 clipLimit \$1;
#X text 539 188 clip limit;
#X text 542 242 tile grid size;
#X msg 507 267 tileGridSize \$1 \$1;
#X obj 485 295 pix_opencv_clahe 40 8 2;
#X text 48 3 <clipLimit> <tile xsize> <tile ysize>;
#X connect 5 0 14 0;
#X connect 6 0 35 0;
#X connect 8 0 9 0;
#X connect 9 0 8 0;
#X connect 10 0 13 0;
#X connect 11 0 12 0;
#X connect 12 0 14 1;
#X connect 13 0 29 0;
#X connect 14 0 16 1;
#X connect 14 2 11 0;
#X connect 16 0 22 0;
#X connect 16 0 27 0;
#X connect 17 0 16 2;
#X connect 17 0 34 0;
#X connect 18 0 16 0;
#X connect 19 0 18 0;
#X connect 20 0 30 0;
#X connect 21 0 39 0;
#X connect 22 0 20 0;
#X connect 24 0 26 0;
#X connect 24 0 27 1;
#X connect 26 0 22 1;
#X connect 27 0 21 0;
#X connect 29 0 14 0;
#X connect 30 0 45 0;
#X connect 31 0 32 0;
#X connect 32 0 17 0;
#X connect 33 0 19 0;
#X connect 34 0 33 0;
#X connect 34 1 5 0;
#X connect 36 0 41 0;
#X connect 37 0 44 0;
#X connect 39 0 30 0;
#X connect 41 0 45 0;
#X connect 44 0 45 0;
#X connect 45 0 6 0;
