#N canvas 994 323 659 516 10;
#X obj 161 117 pix_opencv_trackKnn;
#X msg 131 50 cvblob 3 3 0 0 0 1 1 -1 2 -2 2;
#X msg 161 70 cvblob 4 3 3 4 5 0 0 0 1 1 -1 2 -2 2;
#X obj 216 198 print middle;
#X obj 107 198 print left;
#X obj 323 231 list split 2;
#X obj 323 208 t a a;
#X obj 357 257 list split;
#X msg 414 229 \$2;
#X obj 357 283 t b a;
#X obj 410 315 list;
#X floatatom 449 252 5 0 0 0 - - -, f 5;
#X obj 490 210 list length;
#X floatatom 490 232 5 0 0 0 - - -, f 5;
#X obj 293 270 *;
#X floatatom 293 292 5 0 0 0 - - -, f 5;
#X obj 323 186 route cvblob;
#X msg 182 91 reset;
#X obj 384 382 print oneblob;
#X connect 0 0 4 0;
#X connect 0 1 3 0;
#X connect 0 2 16 0;
#X connect 1 0 0 0;
#X connect 2 0 0 0;
#X connect 5 0 14 0;
#X connect 5 1 7 0;
#X connect 6 0 5 0;
#X connect 6 1 8 0;
#X connect 6 1 12 0;
#X connect 7 0 9 0;
#X connect 7 1 10 0;
#X connect 8 0 7 1;
#X connect 8 0 11 0;
#X connect 9 0 10 0;
#X connect 9 1 18 0;
#X connect 10 0 7 0;
#X connect 12 0 13 0;
#X connect 14 0 15 0;
#X connect 16 0 6 0;
#X connect 17 0 0 0;
