#N canvas 650 367 1125 496 10;
#X obj 472 38 cnv 15 220 250 empty empty empty 20 12 0 14 -228992 -66577
0;
#X obj 11 56 cnv 15 450 100 empty empty empty 20 12 0 14 -233017 -66577
0;
#X obj 12 207 cnv 15 450 130 empty empty empty 20 12 0 14 -233017 -66577
0;
#X text 13 212 Inlets:;
#X obj 12 167 cnv 15 450 30 empty empty empty 20 12 0 14 -195568 -66577
0;
#X text 21 166 Arguments:;
#X text 13 281 Outlets:;
#X text 478 20 Example:;
#X text 37 5 Synopsis: [pix_opencv_contours_convexhull2];
#X text 25 304 Outlet 2: contours output;
#X text 25 314 Outlet 3: info output;
#X text 58 21 Class: pix_opencv;
#X text 11 60 Description: finds contours;
#X text 67 176 none;
#X text 31 234 Inlet 1: message: area [float];
#X text 31 244 Inlet 1: message: epsilon [float];
#X obj 541 151 pix_texture;
#X text 37 75 [pix_opencv_contours_convexhull2] finds contours in incomming
image \, simplifies it according to the epsilon value and outputs contours
with area greater than area value on second outlet;
#X obj 487 171 pix_gray;
#X obj 487 141 pix_buf;
#N canvas 900 297 919 782 drawcontours 0;
#X obj 249 179 list split 2;
#X obj 422 675 GEMglEnd;
#X obj 461 611 GEMglVertex2d;
#X obj 500 248 gemlist;
#X obj 283 310 list append;
#X obj 312 284 t b a;
#X obj 312 263 list split 2;
#X obj 472 514 unpack;
#X obj 381 304 t b a;
#X obj 283 206 t b a b;
#X obj 500 311 color 1 0 0 1;
#X obj 536 564 * -8;
#X obj 536 588 + 4;
#N canvas 716 313 619 726 color 0;
#X obj 201 -38 inlet;
#X obj 302 -38 inlet;
#X obj 158 66 f;
#X msg 302 10 0;
#X obj 158 147 * 6;
#X obj 254 104 t f f;
#X obj 281 133 int;
#X obj 254 150 -;
#N canvas 3 85 579 581 h2rgb 0;
#X obj 171 79 t f f;
#X obj 171 332 spigot;
#X obj 204 168 == 0;
#X obj 204 123 int;
#X msg 171 362 1 \$1 0;
#X obj 221 332 spigot;
#X obj 271 332 spigot;
#X obj 321 332 spigot;
#X obj 254 168 == 1;
#X obj 304 168 == 2;
#X obj 354 168 == 3;
#X obj 371 332 spigot;
#X obj 421 332 spigot;
#X obj 404 168 == 4;
#X obj 454 168 == 5;
#X msg 221 362 \$1 1 0;
#X obj 171 404 t a;
#X obj 95 246 abs;
#X obj 95 226 - 1;
#X obj 68 282 -;
#X msg 68 246 1;
#X msg 271 362 0 1 \$1;
#X msg 321 362 0 \$1 1;
#X msg 371 362 \$1 0 1;
#X msg 421 362 1 0 \$1;
#X obj 114 162 int;
#X obj 95 206 -;
#X obj 114 142 / 2;
#X obj 114 183 * 2;
#X obj 68 118 t f f f;
#X obj 171 48 inlet;
#X obj 171 439 outlet;
#X connect 0 0 29 0;
#X connect 0 1 3 0;
#X connect 1 0 4 0;
#X connect 2 0 1 1;
#X connect 3 0 2 0;
#X connect 3 0 8 0;
#X connect 3 0 9 0;
#X connect 3 0 10 0;
#X connect 3 0 13 0;
#X connect 3 0 14 0;
#X connect 4 0 16 0;
#X connect 5 0 15 0;
#X connect 6 0 21 0;
#X connect 7 0 22 0;
#X connect 8 0 5 1;
#X connect 9 0 6 1;
#X connect 10 0 7 1;
#X connect 11 0 23 0;
#X connect 12 0 24 0;
#X connect 13 0 11 1;
#X connect 14 0 12 1;
#X connect 15 0 16 0;
#X connect 16 0 31 0;
#X connect 17 0 19 1;
#X connect 18 0 17 0;
#X connect 19 0 1 0;
#X connect 19 0 5 0;
#X connect 19 0 6 0;
#X connect 19 0 7 0;
#X connect 19 0 11 0;
#X connect 19 0 12 0;
#X connect 20 0 19 0;
#X connect 21 0 16 0;
#X connect 22 0 16 0;
#X connect 23 0 16 0;
#X connect 24 0 16 0;
#X connect 25 0 28 0;
#X connect 26 0 18 0;
#X connect 27 0 25 0;
#X connect 28 0 26 1;
#X connect 29 0 20 0;
#X connect 29 1 26 0;
#X connect 29 2 27 0;
#X connect 30 0 0 0;
#X restore 158 176 pd h2rgb;
#X obj 254 83 + 0.9;
#X obj 182 240 outlet;
#X connect 0 0 2 0;
#X connect 1 0 3 0;
#X connect 2 0 9 0;
#X connect 2 0 4 0;
#X connect 3 0 2 1;
#X connect 4 0 8 0;
#X connect 5 0 7 0;
#X connect 5 1 6 0;
#X connect 6 0 7 1;
#X connect 7 0 2 1;
#X connect 8 0 10 0;
#X connect 9 0 5 0;
#X restore 575 281 pd color;
#X obj 249 117 t a b;
#X obj 500 375 GEMglLineWidth 2;
#X obj 249 64 inlet;
#X obj 512 202 t b a;
#X obj 500 344 scaleXYZ 1 1 1;
#X obj 578 484 r wh_coeff;
#X obj 578 508 unpack;
#X obj 472 564 * 10.6666;
#X obj 472 584 - 5.33333;
#X floatatom 616 324 5 0 0 0 - - -;
#X obj 512 174 inlet;
#X obj 204 208 unpack 0 0;
#X floatatom 204 229 5 0 0 0 nb_of_segments - -;
#X obj 422 646 gemlist;
#X obj 461 442 gemlist;
#X obj 500 411 GEMglBegin GL_LINE_LOOP;
#X connect 0 0 25 0;
#X connect 0 1 9 0;
#X connect 2 0 27 1;
#X connect 3 0 10 0;
#X connect 4 0 6 0;
#X connect 5 0 4 0;
#X connect 5 1 8 0;
#X connect 6 0 5 0;
#X connect 6 1 4 1;
#X connect 7 0 21 0;
#X connect 7 1 11 0;
#X connect 8 0 28 0;
#X connect 8 1 7 0;
#X connect 9 0 27 0;
#X connect 9 1 6 0;
#X connect 9 2 3 0;
#X connect 10 0 18 0;
#X connect 11 0 12 0;
#X connect 12 0 2 2;
#X connect 13 0 10 1;
#X connect 14 0 0 0;
#X connect 14 1 13 0;
#X connect 15 0 29 0;
#X connect 16 0 14 0;
#X connect 17 0 13 1;
#X connect 17 1 3 1;
#X connect 18 0 15 0;
#X connect 19 0 20 0;
#X connect 21 0 22 0;
#X connect 22 0 2 1;
#X connect 23 0 18 2;
#X connect 24 0 17 0;
#X connect 25 0 26 0;
#X connect 27 0 1 0;
#X connect 28 0 2 0;
#X connect 29 0 28 1;
#X restore 722 286 pd drawcontours;
#N canvas 703 208 1111 871 drawrotrect 0;
#X obj 49 149 list split 2;
#X obj 54 284 list append;
#X obj 83 252 t b a;
#X obj 83 176 t b a b;
#X obj 49 117 t a b;
#X obj 49 64 inlet;
#X obj 148 281 t b a a b;
#X obj 232 526 list split 8;
#X obj 198 499 list split 1;
#X obj 203 637 list append;
#X obj 232 605 t b a;
#X obj 232 585 list split 2;
#X obj 171 796 GEMglEnd;
#X obj 496 701 GEMglVertex2d;
#X obj 507 604 unpack;
#X obj 496 532 gemlist;
#X obj 171 767 gemlist;
#X obj 571 654 * -8;
#X obj 571 678 + 4;
#N canvas 716 319 619 726 color 0;
#X obj 201 -38 inlet;
#X obj 302 -38 inlet;
#X obj 158 66 f;
#X msg 302 10 0;
#X obj 158 147 * 6;
#X obj 254 104 t f f;
#X obj 281 133 int;
#X obj 254 150 -;
#N canvas 3 85 579 581 h2rgb 0;
#X obj 171 79 t f f;
#X obj 171 332 spigot;
#X obj 204 168 == 0;
#X obj 204 123 int;
#X msg 171 362 1 \$1 0;
#X obj 221 332 spigot;
#X obj 271 332 spigot;
#X obj 321 332 spigot;
#X obj 254 168 == 1;
#X obj 304 168 == 2;
#X obj 354 168 == 3;
#X obj 371 332 spigot;
#X obj 421 332 spigot;
#X obj 404 168 == 4;
#X obj 454 168 == 5;
#X msg 221 362 \$1 1 0;
#X obj 171 404 t a;
#X obj 95 246 abs;
#X obj 95 226 - 1;
#X obj 68 282 -;
#X msg 68 246 1;
#X msg 271 362 0 1 \$1;
#X msg 321 362 0 \$1 1;
#X msg 371 362 \$1 0 1;
#X msg 421 362 1 0 \$1;
#X obj 114 162 int;
#X obj 95 206 -;
#X obj 114 142 / 2;
#X obj 114 183 * 2;
#X obj 68 118 t f f f;
#X obj 171 48 inlet;
#X obj 171 439 outlet;
#X connect 0 0 29 0;
#X connect 0 1 3 0;
#X connect 1 0 4 0;
#X connect 2 0 1 1;
#X connect 3 0 2 0;
#X connect 3 0 8 0;
#X connect 3 0 9 0;
#X connect 3 0 10 0;
#X connect 3 0 13 0;
#X connect 3 0 14 0;
#X connect 4 0 16 0;
#X connect 5 0 15 0;
#X connect 6 0 21 0;
#X connect 7 0 22 0;
#X connect 8 0 5 1;
#X connect 9 0 6 1;
#X connect 10 0 7 1;
#X connect 11 0 23 0;
#X connect 12 0 24 0;
#X connect 13 0 11 1;
#X connect 14 0 12 1;
#X connect 15 0 16 0;
#X connect 16 0 31 0;
#X connect 17 0 19 1;
#X connect 18 0 17 0;
#X connect 19 0 1 0;
#X connect 19 0 5 0;
#X connect 19 0 6 0;
#X connect 19 0 7 0;
#X connect 19 0 11 0;
#X connect 19 0 12 0;
#X connect 20 0 19 0;
#X connect 21 0 16 0;
#X connect 22 0 16 0;
#X connect 23 0 16 0;
#X connect 24 0 16 0;
#X connect 25 0 28 0;
#X connect 26 0 18 0;
#X connect 27 0 25 0;
#X connect 28 0 26 1;
#X connect 29 0 20 0;
#X connect 29 1 26 0;
#X connect 29 2 27 0;
#X connect 30 0 0 0;
#X restore 158 176 pd h2rgb;
#X obj 254 83 + 0.9;
#X obj 182 240 outlet;
#X connect 0 0 2 0;
#X connect 1 0 3 0;
#X connect 2 0 9 0;
#X connect 2 0 4 0;
#X connect 3 0 2 1;
#X connect 4 0 8 0;
#X connect 5 0 7 0;
#X connect 5 1 6 0;
#X connect 6 0 7 1;
#X connect 7 0 2 1;
#X connect 8 0 10 0;
#X connect 9 0 5 0;
#X restore 610 371 pd color;
#X obj 574 137 gemhead 1;
#X obj 507 654 * 10.6666;
#X obj 507 674 - 5.33333;
#X obj 343 608 t b a;
#X obj 171 471 t b a b;
#X obj 574 63 loadbang;
#X msg 574 102 0;
#X obj 535 330 gemlist;
#X text 619 326 a chaque frame on reset les coleurs;
#X text 619 346 pour chaque contour on incrémente les couleurs;
#X text 555 530 pour chaque corner on bang la gemlist;
#X obj 535 489 GEMglBegin GL_POLYGON;
#X msg 610 430 \$1 \$2 \$3 0.2;
#X obj 535 461 color 1 0 0 0.2;
#X floatatom 300 569 5 0 0 0 angle - -;
#X obj 685 367 tgl 15 0 empty empty empty 17 7 0 10 -262144 -1 -1 0
1;
#X obj 535 397 alpha;
#X obj 574 200 t b a;
#X obj 81 205 list;
#X obj 81 226 list split 14;
#X obj 266 545 list split 4;
#X text 79 15 info out :;
#X text 89 25 <contour area> <rotrect corners coordinates (8 floats)>
<rotrect center position (2 floats)> <rotrect size (2 floats)> <angle>
;
#X connect 0 1 3 0;
#X connect 1 0 39 0;
#X connect 2 0 1 0;
#X connect 2 1 6 0;
#X connect 3 0 20 0;
#X connect 3 1 38 1;
#X connect 3 2 19 1;
#X connect 4 0 0 0;
#X connect 5 0 4 0;
#X connect 6 1 24 0;
#X connect 6 3 19 0;
#X connect 7 0 11 0;
#X connect 7 1 40 0;
#X connect 8 1 7 0;
#X connect 9 0 11 0;
#X connect 10 0 9 0;
#X connect 10 1 23 0;
#X connect 11 0 10 0;
#X connect 11 1 9 1;
#X connect 13 0 16 1;
#X connect 14 0 21 0;
#X connect 14 1 17 0;
#X connect 15 0 13 0;
#X connect 16 0 12 0;
#X connect 17 0 18 0;
#X connect 18 0 13 2;
#X connect 19 0 32 0;
#X connect 20 0 37 0;
#X connect 21 0 22 0;
#X connect 22 0 13 1;
#X connect 23 0 15 0;
#X connect 23 1 14 0;
#X connect 24 0 16 0;
#X connect 24 1 8 0;
#X connect 24 2 27 0;
#X connect 25 0 26 0;
#X connect 26 0 20 0;
#X connect 27 0 36 0;
#X connect 31 0 15 1;
#X connect 32 0 33 1;
#X connect 33 0 31 0;
#X connect 35 0 36 1;
#X connect 36 0 33 0;
#X connect 37 0 38 0;
#X connect 37 1 27 1;
#X connect 38 0 39 0;
#X connect 39 0 2 0;
#X connect 39 1 1 1;
#X connect 40 1 34 0;
#X restore 631 286 pd drawrotrect;
#X obj 487 76 t b a a;
#X obj 487 57 gemhead 1;
#X msg 542 214 epsilon \$1;
#X floatatom 542 197 5 0 0 0 - - -;
#X obj 625 121 loadbang;
#X obj 541 171 rectangle 5.333 4;
#X obj 514 116 t a a;
#X obj 514 96 pix_image dessin.tif;
#X msg 617 214 area \$1;
#X floatatom 617 197 5 0 0 0 - - -;
#X msg 710 143 10;
#X obj 354 215 cnv 15 100 60 empty empty empty 20 12 0 14 -195568 -66577
0;
#N canvas 1 86 450 300 gemwin 0;
#X obj 132 156 gemwin;
#X obj 67 89 outlet;
#X obj 67 10 inlet;
#X obj 67 41 route create;
#X msg 67 70 set destroy;
#X msg 142 68 set create;
#X msg 198 112 destroy;
#X msg 132 132 reset \, dimen 640 480 \, create \, 1;
#X connect 2 0 3 0;
#X connect 3 0 4 0;
#X connect 3 0 7 0;
#X connect 3 1 5 0;
#X connect 3 1 6 0;
#X connect 4 0 1 0;
#X connect 5 0 1 0;
#X connect 6 0 0 0;
#X connect 7 0 0 0;
#X restore 359 254 pd gemwin;
#X msg 359 235 create;
#X text 355 214 Create window:;
#X text 31 224 Inlet 1: binarized image;
#X text 25 294 Outlet 1: input gemlist;
#X msg 625 141 2;
#X obj 670 261 route info contour;
#X obj 487 240 pix_opencv_contours_convexhull;
#X connect 16 0 27 0;
#X connect 18 0 41 0;
#X connect 19 0 18 0;
#X connect 22 0 19 0;
#X connect 22 1 29 0;
#X connect 22 2 20 1;
#X connect 23 0 22 0;
#X connect 24 0 41 0;
#X connect 25 0 24 0;
#X connect 26 0 39 0;
#X connect 28 0 19 0;
#X connect 28 1 16 0;
#X connect 29 0 28 0;
#X connect 30 0 41 0;
#X connect 31 0 30 0;
#X connect 32 0 31 0;
#X connect 34 0 35 0;
#X connect 35 0 34 0;
#X connect 39 0 25 0;
#X connect 40 1 20 0;
#X connect 41 1 40 0;
