#N canvas 194 115 986 717 10;
#X obj -177 159 cnv 15 430 520 empty empty empty 20 12 0 14 -233017
-66577 0;
#X obj -177 113 cnv 15 430 40 empty empty empty 20 12 0 14 -195568
-66577 0;
#X text -168 117 Arguments:;
#X obj -177 18 cnv 15 430 90 empty empty empty 20 12 0 14 -233017 -66577
0;
#X text -147 137 none;
#X obj 260 -34 cnv 15 520 710 empty empty empty 20 12 0 14 -228992
-66577 0;
#X obj 30 604 cnv 15 220 70 empty empty empty 20 12 0 14 -195568 -66577
0;
#N canvas 0 22 454 304 gemwin 0;
#X obj 67 89 outlet;
#X obj 67 10 inlet;
#X obj 67 41 route create;
#X msg 67 70 set destroy;
#X msg 182 68 set create;
#N canvas 87 154 247 179 Gem.init 0;
#X obj 112 15 loadbang;
#X msg 62 93 reset;
#X obj 49 135 outlet;
#X msg 107 89 dimen 320 240;
#X obj 107 51 t b b b;
#X connect 0 0 4 0;
#X connect 1 0 2 0;
#X connect 3 0 2 0;
#X connect 4 0 3 0;
#X connect 4 2 1 0;
#X restore 268 69 pd Gem.init;
#X obj 162 241 gemwin;
#X msg 161 188 create \, 1;
#X msg 237 189 destroy;
#X msg 188 161 dimen 320 240;
#X obj 164 126 t b b b;
#X msg 279 161 frame 25;
#X connect 1 0 2 0;
#X connect 2 0 3 0;
#X connect 2 0 10 0;
#X connect 2 1 4 0;
#X connect 2 1 8 0;
#X connect 3 0 0 0;
#X connect 4 0 0 0;
#X connect 7 0 6 0;
#X connect 8 0 6 0;
#X connect 9 0 6 0;
#X connect 10 0 7 0;
#X connect 10 1 9 0;
#X connect 10 2 11 0;
#X connect 11 0 6 0;
#X restore 37 650 pd gemwin;
#X msg 38 628 create;
#X text 38 607 Create window and render;
#X obj 268 273 cnv 15 500 350 empty empty empty 20 12 0 14 -24198 -66577
0;
#X obj 275 516 pix_opencv_floodfill;
#X text -170 172 used in tracking algorithms as an object selector
;
#X text -172 201 and Yves Degoyon ( ydegoyon@gmail.com );
#X text -175 23 pdp_opencv_floodfill : mark image components with a
specific color;
#X text -170 187 Written by Lluis Gomez i Bigorda ( lluisgomez@hangar.org
);
#X floatatom 366 468 5 0 0 0 - - -;
#X floatatom 374 489 5 0 0 0 - - -;
#X msg 310 299 mark \$1 \$2;
#X msg 357 448 color \$1;
#X obj 419 449 tgl 15 0 empty empty empty 17 7 0 10 -262144 -1 -1 0
1;
#X text 445 447 activate color mode ( default : on );
#X msg 341 374 fillcolor 1 255 0 123;
#X text 479 375 fillcolor of nth component ( 1 < n < 10 );
#X msg 325 327 delete 1;
#X msg 339 349 clear;
#X text 385 327 delete a component ( 1 <= index <= 10 );
#X text 388 349 delete all components;
#X text 439 410 set connectivity ( default 4 );
#X text 408 468 lower tolerance ( default 20 );
#X text 414 488 upper tolerance ( default 20 );
#X obj 392 544 route 0 1 2 3 4 5 6 7 8 9;
#X floatatom 392 587 5 0 0 0 - - -;
#X floatatom 428 588 5 0 0 0 - - -;
#X floatatom 464 588 5 0 0 0 - - -;
#X floatatom 500 588 5 0 0 0 - - -;
#X obj 392 565 unpack f f f f;
#X text 394 604 X;
#X text 431 604 Y;
#X text 463 605 Width;
#X text 501 605 Height;
#X text 551 545 detected components;
#X msg 345 399 connectivity 4;
#X msg 347 422 connectivity 8;
#X obj 513 -1 gemhead;
#X obj 275 628 pix_texture;
#X obj 525 26 bng 25 250 50 0 load empty empty 0 -6 0 8 -262144 -1
-1;
#X obj 582 201 bng 15 250 50 0 empty empty end_reached 20 7 0 10 -262144
-1 -1;
#X floatatom 564 166 5 0 10000 1 frame# - -;
#X obj 525 55 openpanel;
#X msg 525 75 open \$1;
#X obj 513 184 pix_film;
#X msg 531 118 auto \$1;
#X obj 531 100 tgl 15 0 empty empty empty 0 -6 0 8 -262144 -1 -1 0
1;
#X msg 626 101 colorspace RGBA;
#X msg 637 121 colorspace RGB;
#X msg 650 140 colorspace Grey;
#X obj 626 73 loadbang;
#N canvas 2 83 450 300 vswitch 0;
#X obj 36 131 outlet;
#X obj 36 26 inlet;
#X obj 130 26 inlet;
#X obj 175 26 inlet;
#X obj 81 73 == 0;
#X obj 36 93 spigot 1;
#X obj 130 95 spigot 0;
#X connect 1 0 5 0;
#X connect 2 0 6 0;
#X connect 3 0 4 0;
#X connect 3 0 6 1;
#X connect 4 0 5 1;
#X connect 5 0 0 0;
#X connect 6 0 0 0;
#X restore 276 214 pd vswitch;
#X obj 344 214 tgl 15 0 empty load empty 17 7 0 10 -262144 -1 -1 0
1;
#X obj 276 182 pix_video;
#X obj 276 -6 gemhead;
#X msg 315 107 device 0;
#X msg 324 138 driver 1;
#X msg 301 53 dialog;
#X msg 306 83 device /dev/dv1394-0;
#X obj 275 647 rectangle 5.3 4;
#X text 384 299 mark x y : mark a component;
#X obj 276 252 pix_resize 320 240;
#X obj 276 233 pix_rgba;
#N canvas 1 83 450 300 gemmouse 0;
#X obj 74 28 gemmouse;
#X obj 130 135 f;
#X obj 100 134 f;
#X obj 144 106 t b b;
#X obj 100 162 pack f f;
#X obj 120 56 route 1;
#X msg 141 81 bang;
#X floatatom 22 69 5 0 0 0 - - -;
#X floatatom 70 68 5 0 0 0 - - -;
#X obj 100 185 outlet;
#X connect 0 0 7 0;
#X connect 0 0 2 1;
#X connect 0 1 8 0;
#X connect 0 1 1 1;
#X connect 0 2 5 0;
#X connect 1 0 4 1;
#X connect 2 0 4 0;
#X connect 3 0 2 0;
#X connect 3 1 1 0;
#X connect 4 0 9 0;
#X connect 5 0 6 0;
#X connect 6 0 3 0;
#X restore 310 279 pd gemmouse;
#X connect 7 0 8 0;
#X connect 8 0 7 0;
#X connect 11 0 45 0;
#X connect 11 1 31 0;
#X connect 16 0 11 1;
#X connect 17 0 11 2;
#X connect 18 0 11 0;
#X connect 19 0 11 0;
#X connect 20 0 19 0;
#X connect 22 0 11 0;
#X connect 24 0 11 0;
#X connect 25 0 11 0;
#X connect 31 0 36 0;
#X connect 36 0 32 0;
#X connect 36 1 33 0;
#X connect 36 2 34 0;
#X connect 36 3 35 0;
#X connect 42 0 11 0;
#X connect 43 0 11 0;
#X connect 44 0 51 0;
#X connect 45 0 66 0;
#X connect 46 0 49 0;
#X connect 47 0 48 0;
#X connect 48 0 51 1;
#X connect 49 0 50 0;
#X connect 50 0 51 0;
#X connect 51 0 58 1;
#X connect 51 2 47 0;
#X connect 52 0 51 0;
#X connect 53 0 52 0;
#X connect 54 0 51 0;
#X connect 54 0 60 0;
#X connect 55 0 51 0;
#X connect 56 0 51 0;
#X connect 57 0 54 0;
#X connect 57 0 53 0;
#X connect 58 0 69 0;
#X connect 59 0 58 2;
#X connect 60 0 58 0;
#X connect 61 0 60 0;
#X connect 62 0 60 0;
#X connect 63 0 60 0;
#X connect 64 0 60 0;
#X connect 65 0 60 0;
#X connect 68 0 11 0;
#X connect 69 0 68 0;
#X connect 70 0 18 0;
