#N canvas 11 144 200 200 10;
#N canvas 20 88 421 300 META 1;
#X text 13 10 NAME pix_opencv;
#X text 10 85 LICENSE Intel License Agreement For Open Source Computer
Vision Library;
#X text 10 30 AUTHOR Yves Degoyon <ydegoyon@gmail.com> \, Lluis Gomez
i Bigorda <lluisgomez@hangar.org> and Antoine Villleret;
#X text 10 65 VERSION 0.2rc;
#X restore 10 10 pd META;
