#N canvas 1 116 648 745 10;
#X obj 199 406 glsl_program;
#X obj 274 308 change;
#X obj 199 285 glsl_fragment;
#X obj 11 24 inlet;
#X obj 278 448 t b;
#X msg 274 329 link \$1;
#X msg 346 229 open dilate.frag;
#X obj 11 47 route float;
#X obj 346 176 sel 0 1;
#X msg 365 249 open erode.frag;
#X obj 74 97 spigot;
#X obj 118 97 spigot;
#X obj 107 40 == 0;
#X obj 254 374 r shader_param;
#X obj 107 -4 r pass;
#X obj 278 469 s set_param;
#X obj 382 583 outlet;
#X obj 199 237 gemframebuffer;
#X obj 145 468 translateXYZ 0 0 -4;
#X obj 145 538 pix_texture;
#X obj 145 558 square 4;
#X msg 162 517 quality 1 \, rectangle 0;
#X obj 162 496 loadbang;
#X obj 199 177 gemhead \$1;
#X obj 215 211 r to_fb;
#X obj 107 18 >= \$1;
#X obj 346 139 r mode;
#X connect 0 0 18 0;
#X connect 0 1 4 0;
#X connect 1 0 5 0;
#X connect 2 0 0 0;
#X connect 2 1 1 0;
#X connect 3 0 7 0;
#X connect 4 0 15 0;
#X connect 5 0 0 0;
#X connect 6 0 2 0;
#X connect 7 1 10 0;
#X connect 7 1 11 0;
#X connect 8 0 6 0;
#X connect 8 1 9 0;
#X connect 9 0 2 0;
#X connect 10 0 16 0;
#X connect 11 0 19 1;
#X connect 12 0 10 1;
#X connect 13 0 0 0;
#X connect 14 0 25 0;
#X connect 17 0 2 0;
#X connect 17 1 16 0;
#X connect 18 0 19 0;
#X connect 19 0 20 0;
#X connect 21 0 19 0;
#X connect 22 0 21 0;
#X connect 23 0 17 0;
#X connect 24 0 17 0;
#X connect 25 0 12 0;
#X connect 25 0 11 1;
#X connect 25 0 23 0;
#X connect 26 0 8 0;
