#N canvas 426 156 1272 746 10;
#X obj 5 202 cnv 15 430 500 empty empty empty 20 12 0 14 -233017 -66577
0;
#X obj 5 156 cnv 15 430 40 empty empty empty 20 12 0 14 -195568 -66577
0;
#X text 14 160 Arguments:;
#X obj 5 61 cnv 15 430 90 empty empty empty 20 12 0 14 -233017 -66577
0;
#X text 35 180 none;
#X obj 441 3 cnv 15 810 700 empty empty empty 20 12 0 14 -228992 -66577
0;
#X obj 595 355 cnv 15 650 300 empty empty empty 20 12 0 14 -24198 -66577
0;
#X floatatom 727 648 5 0 0 0 - - -, f 5;
#X floatatom 762 648 5 0 0 0 - - -, f 5;
#X floatatom 799 648 5 0 0 0 - - -, f 5;
#X obj 598 560 pix_opencv_haarcascade;
#X obj 684 359 openpanel;
#X obj 727 610 route 0 1 2 3 4;
#X text 840 649 Xcenter Ycenter Radius;
#X obj 727 629 unpack 0 0 0;
#X msg 624 360 load \$1;
#X text 774 361 Load a trained cascade classifier from XML file;
#X obj 754 359 bng 15 250 50 0 empty empty empty 17 7 0 10 -262144
-1 -1;
#X floatatom 791 456 5 0 0 0 - - -, f 5;
#X floatatom 745 427 5 0 0 0 - - -, f 5;
#X msg 644 393 mode \$1;
#X obj 705 393 tgl 15 0 empty empty empty 17 7 0 10 -262144 -1 -1 0
1;
#X msg 654 426 min_size \$1;
#X msg 668 453 min_neighbors \$1;
#X text 829 445 Minimum number (minus 1) of neighbor rectangles that
makes up an object (default 2);
#X msg 697 486 scale_factor \$1;
#X floatatom 815 486 5 0 0 0 - - -, f 5;
#X text 852 480 The factor by which the search window is scaled between
the subsequent scans (default 1.1);
#X text 825 611 For each object detected;
#X floatatom 662 591 5 0 0 0 - - -, f 5;
#X text 701 591 number of objects detected;
#X text 786 428 Minimum size of object (default 30);
#X msg 725 515 ftolerance \$1;
#X floatatom 815 516 5 0 0 0 - - -, f 5;
#X msg 730 539 clear;
#X text 856 523 temporarily ( default 5 );
#X text 856 511 number of frames where an object can disappear;
#X text 775 540 clear markers history;
#X text 727 390 Mode of operation. Currently the only flag that may
be specified is CV_HAAR_DO_CANNY_PRUNING ( 0 );
#X text 16 212 This object considers a contour to be analyzed any group
of white pixels in a black background \, for this reason you will find
useful to use pix_threshold to obtain a correct input for pix_opencv_contours_boundingrect.
;
#X text 17 265 pix_opencv_contours_convexhull works detecting the bigest
white area in the input image \, sometimes you will need to use pix_opencv_morphology
to transform the contours of the shape to be analyzed..;
#X text 13 70 pix_opencv_contours_convexhull :: Finds convexhull of
the bigest contour of a binary image.;
#X obj 633 16 gemhead;
#X obj 598 659 pix_texture;
#X obj 598 678 square 2;
#X obj 1025 622 cnv 15 220 70 empty empty empty 20 12 0 14 -195568
-66577 0;
#N canvas 0 50 454 304 gemwin 0;
#X obj 67 89 outlet;
#X obj 67 10 inlet;
#X obj 65 41 route create;
#X msg 67 70 set destroy;
#X msg 182 68 set create;
#N canvas 87 154 247 179 Gem.init 0;
#X obj 118 46 loadbang;
#X msg 118 81 reset;
#X obj 118 113 outlet;
#X connect 0 0 1 0;
#X connect 1 0 2 0;
#X restore 289 80 pd Gem.init;
#X obj 162 241 gemwin;
#X msg 161 188 create \, 1;
#X msg 237 189 destroy;
#X msg 283 161 frame 25;
#X obj 164 126 t b b b;
#X connect 1 0 2 0;
#X connect 2 0 3 0;
#X connect 2 0 10 0;
#X connect 2 1 4 0;
#X connect 2 1 8 0;
#X connect 3 0 0 0;
#X connect 4 0 0 0;
#X connect 7 0 6 0;
#X connect 8 0 6 0;
#X connect 9 0 6 0;
#X connect 10 0 7 0;
#X connect 10 2 9 0;
#X restore 1035 666 pd gemwin;
#X msg 1035 648 create;
#X obj 446 660 pix_texture;
#X obj 446 679 square 2;
#X obj 598 296 separator;
#X obj 645 43 bng 25 250 50 0 load empty empty 0 -6 0 8 -262144 -1
-1;
#X obj 702 218 bng 15 250 50 0 empty empty end_reached 20 7 0 10 -262144
-1 -1;
#X floatatom 684 183 5 0 10000 1 frame# - -, f 5;
#X obj 645 72 openpanel;
#X msg 645 92 open \$1;
#X obj 633 201 pix_film;
#X msg 651 135 auto \$1;
#X obj 651 117 tgl 15 0 empty empty empty 0 -6 0 8 -262144 -1 -1 1
1;
#X text 1033 628 Create window and render;
#X msg 746 118 colorspace RGBA;
#X msg 764 138 colorspace RGB;
#X msg 783 157 colorspace Grey;
#X obj 746 90 loadbang;
#X obj 598 277 pix_separator;
#X obj 446 299 separator;
#X obj 446 280 pix_separator;
#X obj 446 318 translateXYZ -2 0 0;
#X obj 598 315 translateXYZ 2 0 0;
#N canvas 1 83 450 300 vswitch 0;
#X obj 36 237 outlet;
#X obj 36 26 inlet;
#X obj 260 29 inlet;
#X obj 399 34 inlet;
#X obj 36 133 spigot 1;
#X obj 260 141 spigot 0;
#X obj 81 108 == 0;
#X connect 1 0 4 0;
#X connect 2 0 5 0;
#X connect 3 0 6 0;
#X connect 3 0 5 1;
#X connect 4 0 0 0;
#X connect 5 0 0 0;
#X connect 6 0 4 1;
#X restore 446 231 pd vswitch;
#X obj 514 231 tgl 15 0 empty load empty 17 7 0 10 -262144 -1 -1 0
1;
#X obj 446 199 pix_video;
#X obj 446 11 gemhead;
#X msg 485 124 device 0;
#X msg 494 155 driver 1;
#X msg 471 70 dialog;
#X msg 476 100 device /dev/dv1394-0;
#X obj 598 334 pix_resize 320 240;
#X obj 446 250 pix_rgba;
#X text 741 560 argument : XML cascade file to load \, default is haarcascade_frontalface_alt.xml
;
#X connect 10 0 43 0;
#X connect 10 1 29 0;
#X connect 10 2 12 0;
#X connect 11 0 15 0;
#X connect 12 0 14 0;
#X connect 14 0 7 0;
#X connect 14 1 8 0;
#X connect 14 2 9 0;
#X connect 15 0 10 0;
#X connect 17 0 11 0;
#X connect 18 0 23 0;
#X connect 19 0 22 0;
#X connect 20 0 10 0;
#X connect 21 0 20 0;
#X connect 22 0 10 0;
#X connect 23 0 10 0;
#X connect 25 0 10 0;
#X connect 26 0 25 0;
#X connect 32 0 10 0;
#X connect 33 0 32 0;
#X connect 34 0 10 0;
#X connect 42 0 56 0;
#X connect 43 0 44 0;
#X connect 46 0 47 0;
#X connect 47 0 46 0;
#X connect 48 0 49 0;
#X connect 50 0 68 0;
#X connect 51 0 54 0;
#X connect 52 0 53 0;
#X connect 53 0 56 1;
#X connect 54 0 55 0;
#X connect 55 0 56 0;
#X connect 56 0 69 1;
#X connect 56 2 52 0;
#X connect 57 0 56 0;
#X connect 58 0 57 0;
#X connect 60 0 56 0;
#X connect 60 0 71 0;
#X connect 61 0 56 0;
#X connect 62 0 56 0;
#X connect 63 0 60 0;
#X connect 63 0 58 0;
#X connect 64 0 50 0;
#X connect 65 0 67 0;
#X connect 66 0 65 0;
#X connect 67 0 48 0;
#X connect 68 0 77 0;
#X connect 69 0 78 0;
#X connect 70 0 69 2;
#X connect 71 0 69 0;
#X connect 72 0 71 0;
#X connect 73 0 71 0;
#X connect 74 0 71 0;
#X connect 75 0 71 0;
#X connect 76 0 71 0;
#X connect 77 0 10 0;
#X connect 78 0 66 0;
#X connect 78 0 64 0;
