#N canvas 553 329 1017 532 10;
#X obj 3 62 cnv 15 430 320 empty empty empty 20 12 0 14 -233017 -66577
0;
#X obj 3 16 cnv 15 430 40 empty empty empty 20 12 0 14 -195568 -66577
0;
#X text 12 20 Arguments:;
#X obj 3 -79 cnv 15 430 90 empty empty empty 20 12 0 14 -233017 -66577
0;
#X text 8 -117 Class: pix_opencv;
#X text 34 33 none;
#X obj 445 -137 cnv 15 560 520 empty empty empty 20 12 0 14 -228992
-66577 0;
#X obj 596 197 cnv 15 400 130 empty empty empty 20 12 0 14 -24198 -66577
0;
#X obj 602 300 pix_opencv_distrans;
#X msg 672 207 voronoi \$1;
#X obj 763 207 tgl 15 0 empty empty empty 17 7 0 10 -262144 -1 -1 0
1;
#X text 782 207 switch Voronoi diagram mode on/off;
#X text 731 233 use 3x3 mask;
#X text 741 252 use 5x5 mask;
#X text 747 271 use precise distance transform;
#X text 802 298 edge threshold;
#X msg 694 271 mask 0;
#X msg 684 252 mask 5;
#X msg 674 232 mask 3;
#X text 11 68 it's a morphology filter that can be used to preprocess
video frames;
#X text 12 93 written by lluis gomez i bigorda ( lluisgomez@hangar.org
);
#X text 9 -75 pix_opencv_distrans : distance processing;
#X floatatom 755 298 5 0 0 0 - - -;
#X obj 204 302 cnv 15 220 70 empty empty empty 20 12 0 14 -195568 -66577
0;
#N canvas 0 22 454 304 gemwin 0;
#X obj 67 89 outlet;
#X obj 67 10 inlet;
#X obj 67 41 route create;
#X msg 67 70 set destroy;
#X msg 182 68 set create;
#N canvas 87 154 247 179 Gem.init 0;
#X obj 118 46 loadbang;
#X msg 118 81 reset;
#X obj 118 113 outlet;
#X connect 0 0 1 0;
#X connect 1 0 2 0;
#X restore 289 80 pd Gem.init;
#X obj 160 260 gemwin;
#X msg 159 207 create \, 1;
#X msg 235 208 destroy;
#X msg 281 180 frame 25;
#X obj 162 170 t b b b;
#X connect 1 0 2 0;
#X connect 2 0 3 0;
#X connect 2 0 10 0;
#X connect 2 1 4 0;
#X connect 2 1 8 0;
#X connect 3 0 0 0;
#X connect 4 0 0 0;
#X connect 7 0 6 0;
#X connect 8 0 6 0;
#X connect 9 0 6 0;
#X connect 10 0 7 0;
#X connect 10 2 9 0;
#X restore 209 346 pd gemwin;
#X msg 209 325 create;
#X text 210 307 Create window and render;
#X obj 687 -125 gemhead;
#X obj 602 329 pix_texture;
#X obj 602 350 square 2;
#X obj 450 329 pix_texture;
#X obj 450 350 square 2;
#X obj 602 155 separator;
#X obj 699 -98 bng 25 250 50 0 load empty empty 0 -6 0 8 -262144 -1
-1;
#X obj 756 77 bng 15 250 50 0 empty empty end_reached 20 7 0 10 -262144
-1 -1;
#X floatatom 738 42 5 0 10000 1 frame# - -;
#X obj 699 -69 openpanel;
#X msg 699 -49 open \$1;
#X obj 687 60 pix_film;
#X msg 705 -6 auto \$1;
#X obj 705 -24 tgl 15 0 empty empty empty 0 -6 0 8 -262144 -1 -1 0
1;
#X msg 800 -23 colorspace RGBA;
#X msg 808 -4 colorspace RGB;
#X msg 820 15 colorspace Grey;
#X obj 800 -51 loadbang;
#X obj 602 136 pix_separator;
#X obj 450 155 separator;
#X obj 450 136 pix_separator;
#X obj 450 173 translateXYZ -2 0 0;
#X obj 602 174 translateXYZ 2 0 0;
#N canvas 1 83 450 300 vswitch 0;
#X obj 36 124 outlet;
#X obj 36 26 inlet;
#X obj 130 29 inlet;
#X obj 175 28 inlet;
#X obj 81 73 == 0;
#X obj 36 93 spigot 1;
#X obj 130 96 spigot 0;
#X connect 1 0 5 0;
#X connect 2 0 6 0;
#X connect 3 0 4 0;
#X connect 3 0 6 1;
#X connect 4 0 5 1;
#X connect 5 0 0 0;
#X connect 6 0 0 0;
#X restore 450 94 pd vswitch;
#X obj 518 94 tgl 15 0 empty load empty 17 7 0 10 -262144 -1 -1 0 1
;
#X obj 450 58 pix_video;
#X obj 450 -130 gemhead;
#X msg 489 -5 device 0;
#X msg 498 14 driver 1;
#X msg 475 -44 dialog;
#X msg 480 -24 device /dev/dv1394-0;
#X obj 450 115 pix_rgba;
#X text 9 -133 Synopsis: [pix_opencv_distrans<];
#X connect 8 0 28 0;
#X connect 9 0 8 0;
#X connect 10 0 9 0;
#X connect 16 0 8 0;
#X connect 17 0 8 0;
#X connect 18 0 8 0;
#X connect 22 0 8 1;
#X connect 24 0 25 0;
#X connect 25 0 24 0;
#X connect 27 0 38 0;
#X connect 28 0 29 0;
#X connect 30 0 31 0;
#X connect 32 0 49 0;
#X connect 33 0 36 0;
#X connect 34 0 35 0;
#X connect 35 0 38 1;
#X connect 36 0 37 0;
#X connect 37 0 38 0;
#X connect 38 0 50 1;
#X connect 38 2 34 0;
#X connect 39 0 38 0;
#X connect 40 0 39 0;
#X connect 41 0 38 0;
#X connect 41 0 52 0;
#X connect 42 0 38 0;
#X connect 43 0 38 0;
#X connect 44 0 41 0;
#X connect 44 0 40 0;
#X connect 45 0 32 0;
#X connect 46 0 48 0;
#X connect 47 0 46 0;
#X connect 48 0 30 0;
#X connect 49 0 8 0;
#X connect 50 0 58 0;
#X connect 51 0 50 2;
#X connect 52 0 50 0;
#X connect 53 0 52 0;
#X connect 54 0 52 0;
#X connect 55 0 52 0;
#X connect 56 0 52 0;
#X connect 57 0 52 0;
#X connect 58 0 47 0;
#X connect 58 0 45 0;
