#N canvas 663 231 914 465 10;
#X obj 8 158 cnv 15 430 250 empty empty empty 20 12 0 14 -233017 -66577
0;
#X obj 8 112 cnv 15 430 40 empty empty empty 20 12 0 14 -195568 -66577
0;
#X text 17 116 Arguments:;
#X obj 7 16 cnv 15 430 90 empty empty empty 20 12 0 14 -233017 -66577
0;
#X text 38 136 none;
#X obj 444 -41 cnv 15 460 450 empty empty empty 20 12 0 14 -228992
-66577 0;
#X obj 597 324 cnv 15 300 40 empty empty empty 20 12 0 14 -24198 -66577
0;
#X obj 604 330 pix_opencv_edge;
#X floatatom 733 329 5 0 0 0 - - -, f 5;
#X text 776 328 edge threshold;
#X text 23 165 written by lluis gomez i bigorda ( lluisgomez@hangar.org
);
#X obj 209 334 cnv 15 220 70 empty empty empty 20 12 0 14 -195568 -66577
0;
#N canvas 0 50 454 304 gemwin 0;
#X obj 67 89 outlet;
#X obj 67 10 inlet;
#X obj 67 41 route create;
#X msg 67 70 set destroy;
#X msg 182 68 set create;
#N canvas 87 154 247 179 Gem.init 0;
#X obj 118 46 loadbang;
#X msg 118 81 reset;
#X obj 118 113 outlet;
#X connect 0 0 1 0;
#X connect 1 0 2 0;
#X restore 289 80 pd Gem.init;
#X obj 160 260 gemwin;
#X msg 159 207 create \, 1;
#X msg 235 208 destroy;
#X msg 281 180 frame 25;
#X obj 162 170 t b b b;
#X connect 1 0 2 0;
#X connect 2 0 3 0;
#X connect 2 0 10 0;
#X connect 2 1 4 0;
#X connect 2 1 8 0;
#X connect 3 0 0 0;
#X connect 4 0 0 0;
#X connect 7 0 6 0;
#X connect 8 0 6 0;
#X connect 9 0 6 0;
#X connect 10 0 7 0;
#X connect 10 2 9 0;
#X restore 214 378 pd gemwin;
#X msg 214 357 destroy;
#X text 215 339 Create window and render;
#X obj 620 -28 gemhead;
#X obj 604 367 pix_texture;
#X obj 604 385 square 2;
#X obj 453 367 pix_texture;
#X obj 453 385 square 2;
#X obj 604 279 separator;
#X obj 632 -1 bng 25 250 50 0 load empty empty 0 -6 0 8 -262144 -1
-1;
#X obj 689 174 bng 15 250 50 0 empty empty end_reached 20 7 0 10 -262144
-1 -1;
#X floatatom 671 139 5 0 10000 1 frame# - -, f 5;
#X obj 632 28 openpanel;
#X msg 632 48 open \$1;
#X obj 620 157 pix_film;
#X msg 638 91 auto \$1;
#X obj 638 73 tgl 15 0 empty empty empty 0 -6 0 8 -262144 -1 -1 1 1
;
#X msg 733 74 colorspace RGBA;
#X msg 741 93 colorspace RGB;
#X msg 753 113 colorspace Grey;
#X obj 733 46 loadbang;
#X obj 604 260 pix_separator;
#X obj 453 279 separator;
#X obj 453 260 pix_separator;
#X obj 453 299 translateXYZ -2 0 0;
#X obj 604 299 translateXYZ 2 0 0;
#N canvas 1 83 450 300 vswitch 0;
#X obj 36 117 outlet;
#X obj 36 26 inlet;
#X obj 140 29 inlet;
#X obj 185 28 inlet;
#X obj 81 60 == 0;
#X obj 36 81 spigot 1;
#X obj 140 85 spigot 0;
#X connect 1 0 5 0;
#X connect 2 0 6 0;
#X connect 3 0 4 0;
#X connect 3 0 6 1;
#X connect 4 0 5 1;
#X connect 5 0 0 0;
#X connect 6 0 0 0;
#X restore 453 207 pd vswitch;
#X obj 521 207 tgl 15 0 empty load empty 17 7 0 10 -262144 -1 -1 0
1;
#X obj 453 155 pix_video;
#X obj 453 -33 gemhead;
#X msg 492 80 device 0;
#X msg 478 26 dialog;
#X msg 483 56 device /dev/dv1394-0;
#X obj 453 230 pix_grey;
#X text 16 -4 pix_opencv_edge;
#X text 15 20 edge detection filter;
#X msg 501 111 driver 0;
#X connect 7 0 16 0;
#X connect 8 0 7 1;
#X connect 12 0 13 0;
#X connect 13 0 12 0;
#X connect 15 0 26 0;
#X connect 16 0 17 0;
#X connect 18 0 19 0;
#X connect 20 0 37 0;
#X connect 21 0 24 0;
#X connect 22 0 23 0;
#X connect 23 0 26 1;
#X connect 24 0 25 0;
#X connect 25 0 26 0;
#X connect 26 0 38 1;
#X connect 26 2 22 0;
#X connect 27 0 26 0;
#X connect 28 0 27 0;
#X connect 29 0 26 0;
#X connect 29 0 40 0;
#X connect 30 0 26 0;
#X connect 31 0 26 0;
#X connect 32 0 29 0;
#X connect 32 0 28 0;
#X connect 33 0 20 0;
#X connect 34 0 36 0;
#X connect 35 0 34 0;
#X connect 36 0 18 0;
#X connect 37 0 7 0;
#X connect 38 0 45 0;
#X connect 39 0 38 2;
#X connect 40 0 38 0;
#X connect 41 0 40 0;
#X connect 42 0 40 0;
#X connect 43 0 40 0;
#X connect 44 0 40 0;
#X connect 45 0 35 0;
#X connect 45 0 33 0;
#X connect 48 0 40 0;
