#N canvas 240 210 936 587 10;
#X obj -6 52 cnv 15 430 370 empty empty empty 20 12 0 14 -233017 -66577
0;
#X obj -6 6 cnv 15 430 40 empty empty empty 20 12 0 14 -195568 -66577
0;
#X text 3 10 Arguments:;
#X obj -7 -90 cnv 15 430 90 empty empty empty 20 12 0 14 -233017 -66577
0;
#X text 24 30 none;
#X obj 430 -147 cnv 15 480 570 empty empty empty 20 12 0 14 -228992
-66577 0;
#X obj 680 337 cnv 15 220 70 empty empty empty 20 12 0 14 -195568 -66577
0;
#N canvas 0 22 454 304 gemwin 0;
#X obj 67 89 outlet;
#X obj 67 10 inlet;
#X obj 65 41 route create;
#X msg 67 70 set destroy;
#X msg 182 68 set create;
#N canvas 87 154 247 179 Gem.init 0;
#X obj 118 46 loadbang;
#X msg 118 81 reset;
#X obj 118 113 outlet;
#X connect 0 0 1 0;
#X connect 1 0 2 0;
#X restore 289 80 pd Gem.init;
#X obj 162 241 gemwin;
#X msg 327 189 destroy;
#X msg 283 161 frame 25;
#X obj 164 126 t b b b;
#X msg 161 188 dimen 320 240 \, create \, 1;
#X connect 1 0 2 0;
#X connect 2 0 3 0;
#X connect 2 0 9 0;
#X connect 2 1 4 0;
#X connect 2 1 7 0;
#X connect 3 0 0 0;
#X connect 4 0 0 0;
#X connect 7 0 6 0;
#X connect 8 0 6 0;
#X connect 9 0 10 0;
#X connect 9 2 8 0;
#X connect 10 0 6 0;
#X restore 690 381 pd gemwin;
#X msg 690 363 create;
#X obj 441 201 cnv 15 460 130 empty empty empty 20 12 0 14 -4034 -66577
0;
#X text 688 343 Create window and render;
#X text 2 -57 written by Yves Degoyon ( ydegoyon@gmail.com );
#X obj 446 361 rectangle 5.3 4;
#X floatatom 485 310 5 0 0 0 - - -;
#X floatatom 530 310 5 0 0 0 - - -;
#X floatatom 575 310 5 0 0 0 - - -;
#X text 619 310 RGB selected components;
#X msg 483 230 tolerance \$1;
#X floatatom 569 232 5 0 0 0 - - -;
#X text 610 231 tolerance applied for the selection of colors;
#X obj 832 49 gemmouse;
#X obj 828 134 f;
#X obj 798 133 f;
#X obj 798 112 t b b;
#X obj 798 155 pack f f;
#X obj 798 90 route 1;
#X text 3 -112 pix_opencv_colorfilt : color filter;
#X text 4 -80 you can set the selected color with its RGB components
or by selecting a piksel in the video window;
#X msg 466 204 pick \$1 \$2;
#X text 542 203 pick a color from the video;
#X obj 633 -135 gemhead;
#X obj 645 -108 bng 25 250 50 0 load empty empty 0 -6 0 8 -262144 -1
-1;
#X obj 702 67 bng 15 250 50 0 empty empty end_reached 20 7 0 10 -262144
-1 -1;
#X floatatom 684 32 5 0 10000 1 frame# - -;
#X obj 645 -79 openpanel;
#X msg 645 -59 open \$1;
#X obj 633 50 pix_film;
#X msg 651 -16 auto \$1;
#X obj 651 -34 tgl 15 0 empty empty empty 0 -6 0 8 -262144 -1 -1 1
1;
#X msg 746 -33 colorspace RGBA;
#X msg 759 5 colorspace RGB;
#X msg 754 -14 colorspace Grey;
#X obj 746 -61 loadbang;
#N canvas 1 165 267 218 vswitch 0;
#X obj 36 143 outlet;
#X obj 36 26 inlet;
#X obj 120 27 inlet;
#X obj 165 27 inlet;
#X obj 81 79 == 0;
#X obj 36 103 spigot 1;
#X obj 120 105 spigot 0;
#X connect 1 0 5 0;
#X connect 2 0 6 0;
#X connect 3 0 4 0;
#X connect 3 0 6 1;
#X connect 4 0 5 1;
#X connect 5 0 0 0;
#X connect 6 0 0 0;
#X restore 446 91 pd vswitch;
#X obj 514 91 tgl 15 0 empty load empty 17 7 0 10 -262144 -1 -1 0 1
;
#X obj 446 48 pix_video;
#X obj 446 -134 gemhead;
#X msg 485 -27 device 0;
#X msg 494 4 driver 1;
#X msg 471 -81 dialog;
#X msg 476 -51 device /dev/dv1394-0;
#X obj 446 289 pix_opencv_colorfilt;
#X obj 446 133 pix_resize 320 240;
#X obj 446 112 pix_rgba;
#X floatatom 485 270 5 0 0 0 - - -;
#X floatatom 530 270 5 0 0 0 - - -;
#X floatatom 575 270 5 0 0 0 - - -;
#X text 619 270 RGB selected components;
#X obj 446 339 pix_texture;
#X connect 7 0 8 0;
#X connect 8 0 7 0;
#X connect 17 0 51 0;
#X connect 18 0 17 0;
#X connect 20 0 22 1;
#X connect 20 1 21 1;
#X connect 20 2 25 0;
#X connect 21 0 24 1;
#X connect 22 0 24 0;
#X connect 23 0 22 0;
#X connect 23 1 21 0;
#X connect 24 0 28 0;
#X connect 25 0 23 0;
#X connect 28 0 51 0;
#X connect 30 0 36 0;
#X connect 31 0 34 0;
#X connect 32 0 33 0;
#X connect 33 0 36 1;
#X connect 34 0 35 0;
#X connect 35 0 36 0;
#X connect 36 0 43 1;
#X connect 36 2 32 0;
#X connect 37 0 36 0;
#X connect 38 0 37 0;
#X connect 39 0 36 0;
#X connect 39 0 45 0;
#X connect 40 0 36 0;
#X connect 41 0 36 0;
#X connect 42 0 39 0;
#X connect 42 0 38 0;
#X connect 43 0 53 0;
#X connect 44 0 43 2;
#X connect 45 0 43 0;
#X connect 46 0 45 0;
#X connect 47 0 45 0;
#X connect 48 0 45 0;
#X connect 49 0 45 0;
#X connect 50 0 45 0;
#X connect 51 0 58 0;
#X connect 51 1 13 0;
#X connect 51 2 14 0;
#X connect 51 3 15 0;
#X connect 52 0 51 0;
#X connect 53 0 52 0;
#X connect 54 0 51 1;
#X connect 55 0 51 2;
#X connect 56 0 51 3;
#X connect 58 0 12 0;
