#N canvas 94 274 960 504 10;
#X obj -7 39 cnv 15 430 270 empty empty empty 20 12 0 14 -233017 -66577
0;
#X obj -7 -7 cnv 15 430 40 empty empty empty 20 12 0 14 -195568 -66577
0;
#X text 2 -3 Arguments:;
#X obj -8 -103 cnv 15 430 90 empty empty empty 20 12 0 14 -233017 -66577
0;
#X text -3 -148 Class: pix_opencv;
#X text 23 17 none;
#X obj 431 -180 cnv 15 510 490 empty empty empty 20 12 0 14 -228992
-66577 0;
#X obj 591 232 pix_texture;
#X obj 591 250 square 2;
#X obj 714 229 cnv 15 220 70 empty empty empty 20 12 0 14 -195568 -66577
0;
#N canvas 0 22 454 304 gemwin 0;
#X obj 67 89 outlet;
#X obj 67 10 inlet;
#X obj 67 41 route create;
#X msg 67 70 set destroy;
#X msg 182 68 set create;
#N canvas 87 154 247 179 Gem.init 0;
#X obj 118 46 loadbang;
#X msg 118 81 reset;
#X obj 118 113 outlet;
#X connect 0 0 1 0;
#X connect 1 0 2 0;
#X restore 289 80 pd Gem.init;
#X obj 192 276 gemwin;
#X msg 191 223 create \, 1;
#X msg 267 224 destroy;
#X msg 313 196 frame 25;
#X obj 194 186 t b b b;
#X connect 1 0 2 0;
#X connect 2 0 3 0;
#X connect 2 0 10 0;
#X connect 2 1 4 0;
#X connect 2 1 8 0;
#X connect 3 0 0 0;
#X connect 4 0 0 0;
#X connect 7 0 6 0;
#X connect 8 0 6 0;
#X connect 9 0 6 0;
#X connect 10 0 7 0;
#X connect 10 2 9 0;
#X restore 726 275 pd gemwin;
#X msg 726 251 create;
#X text 722 231 Create window and render;
#X obj 440 231 pix_texture;
#X obj 440 249 square 2;
#X obj 585 173 cnv 15 200 50 empty empty empty 20 12 0 14 -24198 -66577
0;
#X obj 591 203 pix_opencv_bgstats;
#X text 5 -90 pix_opencv_bgstats : background and foreground extraction
using a statitical method.;
#X obj 677 -168 gemhead;
#X obj 591 127 separator;
#X obj 689 -141 bng 25 250 50 0 load empty empty 0 -6 0 8 -262144 -1
-1;
#X obj 746 34 bng 15 250 50 0 empty empty end_reached 20 7 0 10 -262144
-1 -1;
#X floatatom 728 -1 5 0 10000 1 frame# - -;
#X obj 689 -112 openpanel;
#X msg 689 -92 open \$1;
#X obj 677 17 pix_film;
#X msg 695 -49 auto \$1;
#X obj 695 -67 tgl 15 0 empty empty empty 0 -6 0 8 -262144 -1 -1 1
1;
#X msg 790 -66 colorspace RGBA;
#X msg 801 -46 colorspace RGB;
#X msg 810 -26 colorspace Grey;
#X obj 790 -94 loadbang;
#X obj 591 108 pix_separator;
#X obj 440 130 separator;
#X obj 440 111 pix_separator;
#X obj 440 150 translateXYZ -2 0 0;
#X obj 591 147 translateXYZ 2 0 0;
#N canvas 3 83 450 300 vswitch 0;
#X obj 36 140 outlet;
#X obj 36 26 inlet;
#X obj 130 25 inlet;
#X obj 175 25 inlet;
#X obj 36 103 spigot 1;
#X obj 130 104 spigot 0;
#X obj 81 78 == 0;
#X connect 1 0 4 0;
#X connect 2 0 5 0;
#X connect 3 0 6 0;
#X connect 3 0 5 1;
#X connect 4 0 0 0;
#X connect 5 0 0 0;
#X connect 6 0 4 1;
#X restore 440 59 pd vswitch;
#X obj 508 59 tgl 15 0 empty load empty 17 7 0 10 -262144 -1 -1 0 1
;
#X obj 440 15 pix_video;
#X obj 440 -169 gemhead;
#X msg 479 -60 device 0;
#X msg 488 -29 driver 1;
#X msg 465 -114 dialog;
#X msg 470 -84 device /dev/dv1394-0;
#X obj 440 38 pix_resize 160 120;
#X text 6 51 Objects disappear from the background after a certain
amount of time of presence \, they are then considered as background.
;
#X msg 609 179 reset;
#X text 655 180 reset the background;
#X obj 440 83 pix_rgba;
#X text 6 116 written by Yves Degoyon ( ydegoyon.gmail.com );
#X text -2 -164 Synopsis: [pix_opencv_bgstats];
#X connect 7 0 8 0;
#X connect 10 0 11 0;
#X connect 11 0 10 0;
#X connect 13 0 14 0;
#X connect 16 0 7 0;
#X connect 18 0 25 0;
#X connect 19 0 36 0;
#X connect 20 0 23 0;
#X connect 21 0 22 0;
#X connect 22 0 25 1;
#X connect 23 0 24 0;
#X connect 24 0 25 0;
#X connect 25 0 37 1;
#X connect 25 2 21 0;
#X connect 26 0 25 0;
#X connect 27 0 26 0;
#X connect 28 0 25 0;
#X connect 28 0 39 0;
#X connect 29 0 25 0;
#X connect 30 0 25 0;
#X connect 31 0 28 0;
#X connect 31 0 27 0;
#X connect 32 0 19 0;
#X connect 33 0 35 0;
#X connect 34 0 33 0;
#X connect 35 0 13 0;
#X connect 36 0 16 0;
#X connect 37 0 49 0;
#X connect 38 0 37 2;
#X connect 39 0 45 0;
#X connect 40 0 39 0;
#X connect 41 0 39 0;
#X connect 42 0 39 0;
#X connect 43 0 39 0;
#X connect 44 0 39 0;
#X connect 45 0 37 0;
#X connect 47 0 16 0;
#X connect 49 0 34 0;
#X connect 49 0 32 0;
