#N canvas 768 79 900 410 10;
#X declare -path ../../;
#X obj 180 76 gemhead;
#X obj 180 96 pix_share_read 666 640 480 1;
#X obj 297 176 pix_opencv_findchessboardcorners;
#X obj 17 13 declare -path ../../;
#X obj 548 6 loadbang;
#X msg 587 56 \; pd dsp 1;
#X obj 567 106 pd~ -ninsig 0 -noutsig 0 -fifo 10;
#X msg 567 86 pd~ start -open ./subprocess.pd;
#X obj 297 236 pix_texture;
#X obj 297 256 rectangle 5.333 4;
#X obj 548 166 gemwin;
#X msg 548 136 reset \, title 05_perspective_correction \, dimen 640
480 \, create \, 1;
#X msg 590 166 destroy;
#X msg 297 26 patternSize 9 6;
#X obj 180 116 pix_rgba;
#X text 238 118 <-- switch to color just;
#X text 262 128 to see openCV drawing;
#X obj 526 323 unpack;
#X floatatom 526 343 5 0 0 0 - - -;
#X floatatom 559 343 5 0 0 0 - - -;
#X obj 624 304 unpack;
#X floatatom 624 343 5 0 0 0 - - -;
#X floatatom 657 343 5 0 0 0 - - -;
#X obj 526 223 unpack;
#X floatatom 526 244 5 0 0 0 - - -;
#X floatatom 559 244 5 0 0 0 - - -;
#X obj 624 223 unpack;
#X floatatom 624 243 5 0 0 0 - - -;
#X floatatom 657 243 5 0 0 0 - - -;
#X text 510 270 contrary to OpenGL \, OpenCV coordinates are always
positives;
#X obj 180 136 pix_flip;
#X text 70 130 needed to fix;
#X text 70 140 the flip flag;
#X text 70 150 this is a bug;
#X text 152 137 -->;
#X obj 297 7 loadbang;
#X text 309 42 patternSize should match the number;
#X text 309 52 of inner corners in each direction;
#X text 510 280 and the origin (0 \, 0) is the upper left corner;
#X msg 624 203 \$17 \$18;
#X msg 486 303 \$107 \$108;
#X msg 525 203 \$1 \$2;
#X msg 472 323 \$91 \$92;
#X text 26 359 2012 - Antoine Villeret - tested on Ubuntu with pd 0.43.1
\, gem 0.93.git 1482ffb;
#X obj 548 26 t b b b;
#X text 512 359 the 4 extrem corners' coordinates;
#X connect 0 0 1 0;
#X connect 1 0 14 0;
#X connect 2 0 8 0;
#X connect 2 1 42 0;
#X connect 2 1 40 0;
#X connect 2 1 41 0;
#X connect 2 1 39 0;
#X connect 4 0 44 0;
#X connect 7 0 6 0;
#X connect 8 0 9 0;
#X connect 11 0 10 0;
#X connect 12 0 10 0;
#X connect 13 0 2 0;
#X connect 14 0 30 0;
#X connect 17 0 18 0;
#X connect 17 1 19 0;
#X connect 20 0 21 0;
#X connect 20 1 22 0;
#X connect 23 0 24 0;
#X connect 23 1 25 0;
#X connect 26 0 27 0;
#X connect 26 1 28 0;
#X connect 30 0 2 0;
#X connect 35 0 13 0;
#X connect 39 0 26 0;
#X connect 40 0 20 0;
#X connect 41 0 23 0;
#X connect 42 0 17 0;
#X connect 44 0 11 0;
#X connect 44 1 7 0;
#X connect 44 2 5 0;
