#N canvas 760 553 874 384 10;
#X obj 315 102 gemhead;
#X obj 315 147 pix_image;
#X msg 376 111 open pattern.png;
#X obj 315 167 pix_texture;
#X obj 376 91 loadbang;
#X obj 315 237 translateXYZ;
#X obj 315 257 rotateXYZ;
#X obj -60 342 gemwin;
#X obj 315 277 scaleXYZ;
#X floatatom 546 141 5 0 0 0 - - -;
#X floatatom 506 141 5 0 0 0 - - -;
#X floatatom 466 141 5 0 0 0 - - -;
#X floatatom 426 141 5 0 0 0 - - -;
#X obj -61 72 t b a;
#X obj -61 122 pix_grey;
#X obj -61 53 gemhead 100;
#X obj 315 187 pix_info ________;
#X obj 315 297 rectangle 1 1;
#X obj -61 142 pix_share_write 666 640 480 1;
#X obj -60 222 loadbang;
#X msg -33 264 \; pd dsp 1;
#X obj -60 241 t b b;
#X text 27 268 <- dsp must always be ON;
#X text 44 278 inside a pd~;
#X obj 329 213 /;
#X text 353 213 <-- keep image ratio;
#X floatatom 515 193 5 0 0 0 - - -;
#X obj -61 102 pix_snap 0 0 640 480;
#X msg -18 342 destroy;
#X msg -60 311 reset \, color 1 1 1 \, title subprocess \, dimen 640
480 \, create \, 1;
#X floatatom 555 194 5 0 0 0 - - -;
#X text -60 32 readback and send to host;
#X connect 0 0 1 0;
#X connect 1 0 3 0;
#X connect 2 0 1 0;
#X connect 3 0 16 0;
#X connect 4 0 2 0;
#X connect 5 0 6 0;
#X connect 6 0 8 0;
#X connect 8 0 17 0;
#X connect 9 0 8 2;
#X connect 9 0 8 1;
#X connect 10 0 6 3;
#X connect 11 0 5 2;
#X connect 12 0 5 1;
#X connect 13 0 27 0;
#X connect 13 1 27 0;
#X connect 14 0 18 0;
#X connect 15 0 13 0;
#X connect 16 0 5 0;
#X connect 16 1 24 0;
#X connect 16 2 24 1;
#X connect 19 0 21 0;
#X connect 21 0 29 0;
#X connect 21 1 20 0;
#X connect 24 0 17 1;
#X connect 26 0 6 2;
#X connect 27 0 14 0;
#X connect 28 0 7 0;
#X connect 29 0 7 0;
#X connect 30 0 6 1;
